<?xml version="1.0" standalone="no"?>
<!DOCTYPE svg PUBLIC "-//W3C//DTD SVG 20010904//EN"
 "http://www.w3.org/TR/2001/REC-SVG-20010904/DTD/svg10.dtd">
<svg version="1.0" xmlns="http://www.w3.org/2000/svg"
 width="512.000000pt" height="512.000000pt" viewBox="0 0 512.000000 512.000000"
 preserveAspectRatio="xMidYMid meet">
<metadata>
Created by potrace 1.11, written by Peter Selinger 2001-2013
</metadata>
<g transform="translate(0.000000,512.000000) scale(0.100000,-0.100000)"
fill="#000000" stroke="none">
<path d="M2438 4875 c-2 -1 -41 -5 -88 -9 -103 -8 -194 -21 -275 -40 -151 -35
-272 -72 -402 -124 -122 -50 -311 -152 -431 -234 l-42 -29 36 -47 c37 -48 154
-276 154 -299 0 -22 15 -15 102 43 46 31 145 86 221 122 137 67 138 67 132 97
-3 17 -8 58 -11 93 l-7 62 37 0 c32 0 36 -3 37 -27 0 -16 2 -35 4 -43 2 -8 5
-27 8 -42 9 -45 14 -48 60 -32 111 39 310 80 437 90 101 7 331 2 390 -10 8 -1
38 -6 65 -10 64 -10 193 -42 269 -67 33 -10 60 -19 62 -19 1 0 6 19 10 43 4
23 9 45 10 50 1 4 2 21 3 37 1 27 4 30 34 30 19 0 36 -2 39 -5 5 -5 -3 -74
-16 -145 l-7 -35 125 -59 c69 -33 171 -90 226 -127 84 -56 102 -65 107 -51 21
59 107 228 146 285 l45 67 -71 46 c-40 26 -83 54 -97 63 -180 116 -506 241
-741 285 -58 10 -97 17 -134 21 -22 3 -56 8 -75 10 -41 6 -357 15 -362 10z"/>
<path d="M1052 4320 c-365 -315 -613 -707 -736 -1161 -14 -52 -28 -110 -31
-129 -3 -19 -8 -42 -10 -50 -8 -26 -26 -162 -32 -245 -12 -143 -6 -367 12
-490 35 -229 74 -374 157 -578 67 -164 194 -396 209 -380 4 4 48 87 97 183 50
96 97 188 105 203 13 26 13 32 -8 75 -72 151 -134 367 -159 553 -13 99 -15
420 -2 479 2 14 7 41 10 60 10 69 26 141 41 194 9 29 17 62 19 72 5 26 67 186
97 249 90 195 249 416 407 566 l110 104 -20 50 c-50 128 -155 315 -177 315 -5
0 -45 -31 -89 -70z"/>
<path d="M2366 4379 c-98 -11 -139 -17 -156 -23 -8 -3 -28 -7 -45 -10 -16 -2
-69 -16 -118 -30 -48 -14 -89 -26 -92 -26 -27 0 105 -249 215 -406 23 -33 73
-100 112 -150 l72 -91 59 31 c54 28 70 31 146 31 74 0 94 -4 142 -27 31 -16
60 -28 65 -28 12 1 176 220 247 330 87 135 173 310 152 310 -3 0 -44 12 -92
26 -222 64 -487 88 -707 63z"/>
<path d="M3932 4333 c-49 -73 -77 -128 -117 -228 l-33 -79 99 -94 c294 -279
496 -649 565 -1032 2 -14 6 -34 9 -46 27 -120 27 -476 0 -614 -3 -13 -7 -42
-11 -64 -3 -22 -7 -43 -9 -47 -2 -3 -7 -21 -10 -40 -7 -40 -69 -228 -92 -279
-9 -19 -24 -53 -34 -74 -18 -38 -18 -40 0 -70 10 -17 58 -107 106 -201 48 -93
91 -174 95 -178 13 -14 127 191 197 353 126 293 186 586 187 905 0 185 -13
307 -51 490 -104 499 -373 950 -772 1292 -41 34 -78 63 -82 63 -5 0 -26 -26
-47 -57z"/>
<path d="M1792 4221 c-123 -57 -279 -151 -361 -217 -6 -5 154 -480 210 -624
125 -323 274 -540 452 -662 56 -38 157 -88 177 -88 5 0 19 18 30 40 28 55 91
111 158 140 l57 25 0 93 0 93 -39 10 c-52 14 -133 67 -174 113 -106 121 -119
278 -33 406 l30 44 -30 36 c-50 59 -202 271 -247 342 -23 36 -65 116 -95 177
l-53 110 -82 -38z"/>
<path d="M3188 4141 c-63 -131 -179 -310 -291 -451 l-76 -95 20 -30 c50 -74
64 -118 63 -200 0 -95 -21 -147 -89 -223 -40 -44 -77 -67 -195 -122 -12 -6
-15 -27 -15 -96 l0 -89 48 -20 c68 -28 131 -82 162 -137 14 -27 30 -48 35 -48
21 0 122 51 180 90 163 111 286 283 424 592 38 86 236 660 236 684 0 19 -172
130 -310 200 -147 74 -127 79 -192 -55z"/>
<path d="M1263 3853 c-158 -157 -281 -331 -374 -529 -43 -92 -101 -250 -113
-306 -52 -247 -60 -317 -60 -498 2 -243 53 -486 151 -708 12 -27 17 -31 29
-21 8 6 14 16 14 21 0 23 151 212 239 298 196 192 432 321 721 393 90 23 266
55 323 60 9 1 17 2 17 3 0 2 -28 17 -62 34 -96 49 -146 87 -233 174 -99 100
-180 221 -260 391 -76 158 -85 183 -195 510 -48 142 -92 261 -98 263 -6 2 -51
-36 -99 -85z"/>
<path d="M3745 3928 c-2 -7 -42 -125 -88 -263 -76 -224 -98 -285 -140 -390
-36 -88 -124 -256 -173 -331 -105 -158 -223 -267 -372 -344 -34 -18 -61 -34
-60 -35 2 -2 28 -6 58 -9 311 -36 587 -134 814 -289 114 -78 281 -245 366
-366 36 -51 70 -100 77 -109 10 -15 14 -10 32 32 115 267 164 578 138 886 -8
92 -9 101 -37 235 -67 324 -249 654 -495 901 -94 93 -112 105 -120 82z"/>
<path d="M2495 3626 c-79 -22 -143 -73 -181 -146 -28 -54 -28 -173 -1 -229 46
-98 137 -154 247 -155 113 0 199 56 248 163 45 98 19 221 -63 303 -59 59 -166
86 -250 64z"/>
<path d="M2496 2750 c-151 -47 -197 -241 -85 -359 76 -81 224 -78 303 5 96
102 67 276 -56 340 -35 18 -124 26 -162 14z"/>
<path d="M2035 2465 c-5 -2 -44 -11 -85 -20 -320 -72 -547 -192 -755 -400
-108 -107 -157 -169 -236 -292 l-38 -61 51 -85 c28 -47 80 -125 116 -174 72
-97 308 -336 326 -330 6 2 20 59 32 128 11 68 31 169 43 224 12 55 24 109 27
120 7 36 75 249 91 285 126 290 236 441 407 561 59 42 67 59 21 44z"/>
<path d="M2225 2451 c-233 -83 -424 -291 -545 -596 -50 -126 -108 -321 -125
-425 -3 -19 -8 -42 -10 -50 -2 -8 -7 -31 -10 -50 -3 -19 -10 -57 -15 -85 -5
-27 -12 -68 -15 -90 -3 -22 -8 -56 -11 -76 -6 -36 -5 -38 54 -78 174 -118 462
-236 652 -267 14 -2 35 -6 47 -9 89 -20 395 -28 533 -13 131 14 363 74 485
126 80 34 241 120 303 161 56 38 63 45 58 69 -3 15 -8 47 -11 72 -67 504 -224
918 -422 1112 -97 96 -124 116 -218 162 -129 63 -127 63 -147 18 -29 -67 -113
-141 -184 -162 l-39 -12 0 -58 0 -58 53 -11 c84 -17 177 -68 243 -133 68 -68
99 -118 128 -205 83 -248 -104 -696 -338 -811 -76 -37 -183 -38 -253 -4 -188
93 -366 420 -366 673 0 227 153 419 383 479 l60 16 0 57 c0 31 -4 57 -10 57
-5 0 -33 11 -61 24 -59 27 -117 84 -148 143 l-21 42 -50 -18z"/>
<path d="M3060 2454 c14 -11 44 -32 67 -48 60 -40 179 -168 236 -253 60 -90
135 -247 180 -378 31 -90 88 -304 101 -379 3 -16 10 -52 16 -80 13 -68 17 -91
25 -159 4 -31 11 -57 16 -57 29 0 242 216 336 341 38 52 91 130 116 173 l45
79 -38 61 c-114 180 -285 361 -430 457 -178 118 -416 214 -604 243 -21 4 -51
9 -65 13 l-26 6 25 -19z"/>
<path d="M2430 2046 c-203 -70 -316 -271 -276 -492 38 -209 169 -429 299 -500
111 -60 227 -25 333 104 117 142 199 376 187 530 -21 264 -293 444 -543 358z"/>
<path d="M774 1418 c-55 -106 -100 -200 -102 -208 -6 -35 256 -325 408 -451
54 -46 279 -203 281 -197 2 9 8 61 14 123 3 39 10 99 15 135 23 173 23 187 0
203 -84 59 -259 233 -348 347 -31 39 -126 182 -141 213 -8 15 -18 27 -21 27
-4 0 -52 -87 -106 -192z"/>
<path d="M4197 1545 c-92 -159 -278 -371 -435 -496 l-54 -42 6 -51 c5 -49 8
-73 21 -176 3 -25 8 -76 12 -115 8 -91 8 -95 15 -98 9 -3 157 98 248 169 106
84 275 252 364 364 38 47 71 90 73 97 3 7 -37 94 -87 194 -97 193 -112 219
-120 219 -3 0 -23 -29 -43 -65z"/>
<path d="M3622 948 c-34 -34 -273 -157 -392 -201 -110 -41 -234 -75 -335 -92
-16 -3 -41 -7 -55 -10 -130 -23 -439 -23 -565 0 -168 31 -260 55 -384 102
-111 41 -248 108 -338 165 -35 22 -67 38 -70 35 -6 -7 -7 -17 -19 -127 -3 -36
-8 -74 -10 -84 -3 -15 -9 -85 -18 -204 -2 -33 328 -175 529 -227 211 -54 342
-70 595 -70 239 0 300 6 509 49 133 28 326 93 455 154 137 64 161 79 160 99
-1 17 -13 149 -19 203 -1 14 -5 48 -9 75 -3 28 -9 70 -12 95 -6 51 -7 53 -22
38z"/>
</g>
</svg>
