<?xml version="1.0" encoding="utf-8"?>
<!-- Generator: Adobe Illustrator 16.0.4, SVG Export Plug-In . SVG Version: 6.00 Build 0)  -->
<!DOCTYPE svg PUBLIC "-//W3C//DTD SVG 1.1//EN" "http://www.w3.org/Graphics/SVG/1.1/DTD/svg11.dtd">
<svg version="1.1" id="Layer_1" xmlns="http://www.w3.org/2000/svg" xmlns:xlink="http://www.w3.org/1999/xlink" x="0px" y="0px"
	 width="110px" height="100px" viewBox="0 0 110 100" enable-background="new 0 0 110 100" xml:space="preserve">
<path fill="#FFFFFF" d="M93.438,64.502c-0.995-1.973-2.017-3.993-3.157-5.983c2.584-5.236,4.041-11.122,4.041-17.345
	c0-12.176-5.562-23.077-14.281-30.297c1.261-3.335,2.646-6.204,4.446-8.008l-1.112-1.111c-1.907,1.907-3.344,4.781-4.628,8.1
	c-2.82-2.143-5.939-3.911-9.281-5.238c0.382-1.312,0.602-2.597,0.602-3.815h-1.574c0,1.034-0.187,2.132-0.506,3.26
	c-4.068-1.428-8.437-2.213-12.988-2.213c-4.551,0-8.919,0.785-12.988,2.214c-0.318-1.129-0.503-2.227-0.503-3.261h-1.574
	c0,1.219,0.218,2.503,0.598,3.815c-3.341,1.327-6.458,3.096-9.279,5.238c-1.283-3.318-2.72-6.192-4.63-8.1l-1.112,1.111
	c1.802,1.804,3.186,4.673,4.448,8.008c-8.719,7.22-14.284,18.121-14.284,30.297c0,6.225,1.458,12.108,4.043,17.345
	c-1.143,1.99-2.163,4.011-3.157,5.983c-2.123,4.216-4.128,8.196-7.03,11.096l1.113,1.115c3.081-3.081,5.141-7.17,7.323-11.503
	c0.835-1.658,1.688-3.349,2.623-5.024c2.712,4.888,6.432,9.146,10.882,12.479c-0.374,2.862-0.667,5.687-0.943,8.354
	c-0.827,7.967-1.543,14.844-3.764,17.064l1.113,1.113c2.617-2.617,3.323-9.412,4.216-18.016c0.252-2.433,0.516-4.951,0.829-7.48
	c6.297,4.286,13.898,6.797,22.076,6.797c8.178,0,15.779-2.511,22.076-6.797c0.313,2.529,0.577,5.048,0.83,7.48
	c0.894,8.604,1.599,15.398,4.216,18.016l1.112-1.113c-2.222-2.221-2.935-9.098-3.763-17.064c-0.278-2.667-0.57-5.491-0.943-8.354
	c4.449-3.334,8.17-7.592,10.881-12.479c0.935,1.676,1.789,3.366,2.623,5.024c2.183,4.333,4.243,8.422,7.324,11.503l1.112-1.115
	C97.566,72.698,95.56,68.718,93.438,64.502z M92.75,41.174c0,5.607-1.238,10.927-3.439,15.716
	c-4.757-7.681-11.839-14.579-27.292-16.161c9.233-3.542,12.758-14.186,15.927-23.786c0.507-1.533,1.007-3.039,1.519-4.483
	C87.585,19.389,92.75,29.687,92.75,41.174z M54.999,50.955c4.663,0,8.458,3.793,8.458,8.457c0,4.854-3.952,12.883-8.458,12.883
	c-4.504,0-8.457-8.028-8.457-12.883C46.542,54.748,50.335,50.955,54.999,50.955z M54.999,29.923c-3.052,0-5.535-2.482-5.535-5.537
	c0-1.315,0.479-2.509,1.249-3.459c0.333-0.412,0.71-0.789,1.15-1.095c0.894-0.616,1.973-0.982,3.137-0.982
	c1.167,0,2.245,0.366,3.139,0.981c0.438,0.304,0.815,0.684,1.151,1.096c0.768,0.95,1.249,2.144,1.249,3.459
	C60.538,27.44,58.054,29.923,54.999,29.923z M59.274,42.089c-0.021,0.102-0.062,0.192-0.09,0.288
	c-0.455,1.578-1.76,2.792-3.399,3.092c-0.254,0.048-0.517,0.079-0.786,0.079c-0.269,0-0.529-0.031-0.787-0.079
	c-1.636-0.3-2.942-1.514-3.398-3.092c-0.028-0.096-0.067-0.187-0.089-0.288c-0.04-0.19-0.052-0.393-0.067-0.593
	c-0.008-0.108-0.033-0.214-0.033-0.322c0-0.125,0.028-0.246,0.039-0.371c0.008-0.096,0.014-0.194,0.029-0.287
	c0.031-0.208,0.081-0.407,0.141-0.604c0.47-1.549,1.764-2.737,3.379-3.031c0.258-0.048,0.518-0.08,0.787-0.08
	c0.27,0,0.532,0.032,0.786,0.08c1.617,0.294,2.91,1.482,3.382,3.031c0.061,0.197,0.11,0.396,0.141,0.604
	c0.014,0.093,0.021,0.191,0.03,0.287c0.01,0.125,0.036,0.246,0.036,0.371c0,0.108-0.024,0.214-0.031,0.322
	C59.326,41.696,59.315,41.898,59.274,42.089z M78.173,11.406c-0.585,1.621-1.149,3.313-1.72,5.042
	c-3.127,9.471-6.629,19.974-15.78,23.032c-0.66-2.205-2.553-3.86-4.888-4.175v-3.888c3.551-0.396,6.326-3.38,6.326-7.032
	c0-1.793-0.69-3.413-1.79-4.667c3.079-3.665,6.81-8.748,8.627-13.611C72.284,7.438,75.383,9.23,78.173,11.406z M54.999,3.425
	c4.379,0,8.583,0.757,12.497,2.134c-1.72,4.581-5.348,9.499-8.344,13.082c-1.172-0.851-2.599-1.364-4.153-1.364
	c-1.553,0-2.98,0.514-4.153,1.364c-2.997-3.583-6.623-8.501-8.343-13.082C46.417,4.182,50.621,3.425,54.999,3.425z M41.049,6.107
	c1.822,4.863,5.552,9.946,8.629,13.611c-1.1,1.254-1.788,2.874-1.788,4.667c0,3.652,2.776,6.636,6.322,7.032v3.888
	c-2.333,0.314-4.223,1.97-4.885,4.175c-9.152-3.058-12.652-13.562-15.778-23.03c-0.571-1.73-1.137-3.423-1.723-5.044
	C34.614,9.23,37.715,7.438,41.049,6.107z M17.249,41.174c0-11.487,5.165-21.785,13.287-28.715c0.512,1.444,1.012,2.951,1.519,4.483
	c3.169,9.603,6.693,20.244,15.927,23.786c-15.454,1.582-22.537,8.48-27.292,16.161C18.488,52.101,17.249,46.781,17.249,41.174z
	 M21.517,58.577c4.292-7.184,10.506-13.792,23.854-15.907c-8.846,4.842-12.008,16.657-13.652,28.188
	C27.505,67.546,24.014,63.366,21.517,58.577z M54.999,78.925c-8.138,0-15.676-2.596-21.846-6.993
	c1.75-13.02,5.157-25.926,16.139-29.177c0.628,2.263,2.546,3.972,4.92,4.288v2.379c-5.164,0.402-9.244,4.726-9.244,9.99
	c0,5.078,4.138,14.455,10.031,14.455c5.896,0,10.033-9.377,10.033-14.455c0-5.265-4.081-9.588-9.247-9.99v-2.379
	c2.377-0.316,4.296-2.025,4.923-4.288c10.981,3.251,14.39,16.157,16.139,29.177C70.676,76.329,63.139,78.925,54.999,78.925z
	 M78.28,70.858c-1.646-11.531-4.808-23.347-13.651-28.188c13.347,2.112,19.561,8.724,23.852,15.907
	C85.984,63.366,82.493,67.546,78.28,70.858z"/>
</svg>
