<?xml version="1.0" encoding="utf-8"?>
<!-- Generator: Adobe Illustrator 16.0.0, SVG Export Plug-In . SVG Version: 6.00 Build 0)  -->
<!DOCTYPE svg PUBLIC "-//W3C//DTD SVG 1.1//EN" "http://www.w3.org/Graphics/SVG/1.1/DTD/svg11.dtd">
<svg version="1.1" id="Layer_1" xmlns="http://www.w3.org/2000/svg" xmlns:xlink="http://www.w3.org/1999/xlink" x="0px" y="0px"
	 width="250px" height="250px" viewBox="0 0 250 250" enable-background="new 0 0 250 250" xml:space="preserve">
<g opacity="0.1">
	<defs>
		<rect id="SVGID_1_" opacity="0.1" width="250" height="250"/>
	</defs>
	<clipPath id="SVGID_2_">
		<use xlink:href="#SVGID_1_"  overflow="visible"/>
	</clipPath>
	<g clip-path="url(#SVGID_2_)">
		<path fill="#FFFFFF" d="M131.56,71.72l-5.146-16.015c-0.264-0.819-0.562-1.748-1.201-2.325c-0.575-0.52-1.407-0.761-2.617-0.761
			c-0.5,0-1.005,0.038-1.491,0.078c-1.04,0.084-2.291,0.126-3.718,0.126c-10.232,0-27.247-2.183-27.417-2.205
			c-8.042-2.258-13.969-10.437-14.163-19.46c-0.171-8,3.901-16.283,10.894-22.156c5.787-4.86,13.519-8.228,22.979-10.009
			c6.972-1.313,14.17-1.677,21.131-2.028c1.301-0.065,2.602-0.131,3.901-0.203c1.155-0.064,2.312-0.132,3.469-0.201
			c4.39-0.259,8.929-0.527,13.389-0.527c4.677,0,8.764,0.299,12.496,0.916c11.106,1.833,20.057,6.874,25.202,14.194
			c6.102,8.682,5.809,20.843-0.668,27.688c-5.521,5.833-14.092,7.307-21.747,7.979c-7.837,0.687-15.821,0.86-23.679,0.513
			c-0.384-0.017-0.778-0.032-1.172-0.032c-1.103,0-2.489,0.107-3.432,0.946c-0.874,0.779-1.229,2.091-1.514,3.146L131.56,71.72z
			 M122.596,51.619c0.927,0,2.276,0.105,3.287,1.019c0.839,0.757,1.196,1.869,1.482,2.761l4.112,12.794l4.615-17.072
			c0.319-1.183,0.717-2.654,1.813-3.632c1.195-1.063,2.816-1.199,4.097-1.199c0.409,0,0.818,0.016,1.217,0.033
			c7.811,0.345,15.753,0.173,23.546-0.51c7.469-0.656,15.817-2.08,21.108-7.67c6.878-7.269,5.694-19.144,0.576-26.425
			c-4.989-7.099-13.707-11.994-24.546-13.783c-3.679-0.607-7.713-0.902-12.334-0.902c-4.431,0-8.954,0.267-13.329,0.525
			c-1.159,0.068-2.316,0.137-3.474,0.2c-1.301,0.072-2.604,0.138-3.905,0.203c-6.928,0.35-14.092,0.711-20.997,2.012
			c-9.291,1.75-16.868,5.044-22.521,9.792c-6.764,5.681-10.703,13.669-10.538,21.369c0.185,8.595,5.804,16.377,13.362,18.504
			c0.099,0.007,17.051,2.183,27.218,2.183c1.401,0,2.625-0.042,3.638-0.124C121.536,51.659,122.069,51.619,122.596,51.619z"/>
	</g>
	<g clip-path="url(#SVGID_2_)">
		<path fill="#FFFFFF" d="M188.973,182.355l0.636-1.327c2.76-5.758,4.688-11.873,5.734-18.174c0.128-0.771,0.229-1.639-0.199-2.195
			c-0.512-0.663-1.621-0.671-2.64-0.594c-10.205,0.786-43.719,2.993-46.617-1.562c-0.6-0.912-14.799-22.614-17.015-33.995
			c-2.665-13.691-4.109-27.809,3.311-38.315c4.75-6.727,11.993-10.173,17.232-11.88c6.995-2.278,14.4-2.869,20.792-3.245
			c18.92-1.113,38.057-0.587,56.881,1.562c9.681,1.104,19.495,3.071,25.705,9.92c6.055,6.676,7.157,16.21,7.447,25.518
			c0.317,10.215,0.027,20.556-0.864,30.737l-0.996-0.088c0.888-10.142,1.177-20.443,0.86-30.618
			c-0.284-9.117-1.352-18.44-7.188-24.877c-5.988-6.604-15.592-8.517-25.078-9.599c-18.766-2.142-37.846-2.666-56.709-1.558
			c-6.329,0.372-13.659,0.957-20.54,3.198c-5.097,1.659-12.135,5.002-16.727,11.506c-7.203,10.2-5.769,24.074-3.145,37.547
			c2.178,11.189,16.726,33.42,16.872,33.644c1.94,3.048,24.349,2.752,45.7,1.109c1.286-0.104,2.708-0.062,3.51,0.98
			c0.641,0.833,0.567,1.919,0.393,2.969c-0.979,5.9-2.722,11.64-5.186,17.083c7.915-4.41,13.966-11.453,19.337-18.455
			c1.621-2.112,3.271-4.262,5.723-5.296c0.979-0.411,2.101-0.649,3.529-0.749l0.07,0.998c-1.316,0.092-2.337,0.306-3.212,0.673
			c-2.208,0.931-3.775,2.974-5.291,4.949c-5.761,7.51-12.272,15.039-21.015,19.469L188.973,182.355z"/>
	</g>
	<g clip-path="url(#SVGID_2_)">
		<path fill="#FFFFFF" d="M102.965,209.291c-0.014,0-0.027,0-0.041,0c-1.369-0.054-4.562-2.797-9.658-7.309
			c-3.528-3.123-7.918-7.01-9.029-7.054c-5.33-0.209-10.422-0.655-14.132-3.771c-1.875-1.575-3.376-3.892-4.341-6.699
			c-2.354-6.841-0.899-14.867,3.706-20.448c4.605-5.581,12.208-8.53,19.375-7.52l-0.044,0.315
			c13.108,0.042,25.997,2.333,38.351,6.822c5.01,1.821,11.06,4.624,13.39,10.178c3.05,7.272-2.21,15.801-9.036,19.202
			c-7.035,3.505-15.221,3.184-22.44,2.899l-10.199-0.403c-0.039,0.854,1.44,4.037,2.436,6.181c2.097,4.515,2.896,6.435,2.353,7.25
			C103.5,209.166,103.257,209.291,102.965,209.291z M86.015,157.294c-5.982,0-11.958,2.729-15.774,7.354
			c-4.389,5.318-5.775,12.967-3.532,19.486c0.906,2.636,2.303,4.8,4.039,6.259c3.468,2.912,8.378,3.335,13.529,3.536
			c1.369,0.055,4.56,2.796,9.653,7.305c3.402,3.012,7.605,6.733,8.9,7.038c0.021-0.875-1.446-4.033-2.436-6.164
			c-2.097-4.516-2.897-6.436-2.354-7.252c0.161-0.24,0.414-0.351,0.729-0.355l10.333,0.408c7.103,0.282,15.151,0.597,21.956-2.794
			c6.42-3.2,11.392-11.165,8.56-17.921c-2.181-5.196-7.991-7.873-12.81-9.625c-13.086-4.755-26.776-7.021-40.695-6.738l-0.011-0.536
			C86.073,157.294,86.044,157.294,86.015,157.294z"/>
	</g>
	<g clip-path="url(#SVGID_2_)">
		<path fill="#FFFFFF" d="M197.07,132.528c-2.688,0-5.476-0.349-8.217-0.756c-1.685-0.25-3.593-0.534-5.209-1.476
			c-2.341-1.36-3.965-3.952-4.964-7.924c-1.104-4.392-1.343-9.081-0.692-13.558c0.504-3.469,2.378-7.521,6.001-7.526l0.002,1
			c-2.795,0.004-4.531,3.353-5.013,6.67c-0.632,4.35-0.399,8.904,0.673,13.17c0.929,3.697,2.4,6.086,4.496,7.304
			c1.45,0.845,3.181,1.103,4.853,1.352c6.414,0.952,13.076,1.583,17.88-1.977c4.541-3.365,5.984-9.285,7.173-15.57
			c0.307-1.626,0.654-3.47,0.243-5.142c-0.323-1.309-1.112-2.572-2.345-3.754c-4.444-4.26-11.297-4.635-17.936-4.655
			c-3.322,0.001-6.497,0.136-8.731,1.988l-0.639-0.77c2.492-2.065,5.865-2.228,9.373-2.218c6.841,0.02,13.914,0.417,18.624,4.933
			c1.372,1.315,2.255,2.74,2.624,4.236c0.464,1.883,0.095,3.84-0.231,5.566c-1.178,6.229-2.731,12.61-7.56,16.187
			C204.481,131.83,200.875,132.528,197.07,132.528z"/>
	</g>
	<g clip-path="url(#SVGID_2_)">
		<path fill="#FFFFFF" d="M194.862,119.351c-0.734,0-1.438-0.197-2.025-0.585c-1.102-0.728-1.694-2.105-1.549-3.595
			c0.14-1.424,0.915-2.557,2.074-3.031l0.379,0.926c-0.81,0.331-1.354,1.155-1.458,2.203c-0.108,1.103,0.325,2.148,1.104,2.663
			c0.747,0.494,1.775,0.555,2.744,0.167c1.038-0.416,1.817-1.266,2.035-2.219c0.206-0.903-0.026-1.912-0.638-2.768
			c-0.656-0.918-1.655-1.53-2.672-1.637l0.105-0.994c1.297,0.137,2.561,0.903,3.38,2.05c0.777,1.089,1.069,2.391,0.799,3.572
			c-0.294,1.287-1.279,2.38-2.638,2.924C195.963,119.244,195.403,119.351,194.862,119.351z"/>
	</g>
	<g clip-path="url(#SVGID_2_)">
		<path fill="#FFFFFF" d="M193.286,109.69c-0.448,0-0.903-0.152-1.321-0.451c-0.861-0.615-1.369-1.695-1.263-2.688
			c0.191-1.786,1.666-3.03,2.758-3.81l0.582,0.813c-1.487,1.062-2.232,2.048-2.346,3.103c-0.067,0.635,0.281,1.361,0.85,1.768
			c0.224,0.16,0.673,0.396,1.148,0.172c0.327-0.153,0.591-0.468,0.826-0.785c1.065-1.431,1.778-3.118,2.062-4.877l0.986,0.159
			c-0.309,1.917-1.085,3.756-2.245,5.315c-0.299,0.402-0.676,0.846-1.204,1.094C193.853,109.628,193.57,109.69,193.286,109.69z"/>
	</g>
	<g clip-path="url(#SVGID_2_)">
		<path fill="#FFFFFF" d="M196.127,129.836c-0.371,0-0.758-0.094-1.139-0.284c-1.021-0.51-1.717-1.559-1.729-2.609
			c-0.02-1.582,1.072-3.146,2.919-4.184l0.49,0.872c-0.571,0.32-2.431,1.505-2.409,3.3c0.008,0.675,0.491,1.385,1.176,1.727
			c0.287,0.144,0.841,0.332,1.333-0.031c0.495-0.363,0.707-1.07,0.897-1.823l0.972-3.844c0.161-0.642,0.272-1.169,0.119-1.625
			c-0.072-0.218-0.264-0.423-0.475-0.511c-0.13-0.054-0.239-0.056-0.334-0.008l-0.445-0.896c0.352-0.176,0.766-0.184,1.162-0.02
			c0.478,0.198,0.876,0.626,1.041,1.117c0.257,0.77,0.06,1.556-0.099,2.187l-0.973,3.844c-0.236,0.938-0.512,1.825-1.274,2.386
			C196.995,129.701,196.571,129.836,196.127,129.836z"/>
	</g>
	<g clip-path="url(#SVGID_2_)">
		<path fill="#FFFFFF" d="M201.513,112.539l-0.855-0.518c1.608-2.658,4.184-4.445,6.675-6.174c1.316-0.913,2.677-1.858,3.866-2.914
			c3.999-3.548,6.438-8.858,6.523-14.205l1,0.016c-0.09,5.622-2.654,11.206-6.859,14.937c-1.234,1.096-2.62,2.058-3.96,2.988
			C205.387,108.414,203.011,110.063,201.513,112.539z"/>
	</g>
	<g clip-path="url(#SVGID_2_)">
		<path fill="#FFFFFF" d="M220.105,142.025l-0.916-0.402c1.932-4.399-0.898-9.396-3.613-12.814
			c-4.058-5.109-8.936-9.433-14.498-12.852l0.523-0.852c5.662,3.479,10.627,7.881,14.758,13.082
			C219.245,131.82,222.237,137.17,220.105,142.025z"/>
	</g>
	<g clip-path="url(#SVGID_2_)">
		<path fill="#FFFFFF" d="M213.19,152.977l-0.973-0.23c1.787-7.539-2.187-15.239-6.409-22.479l-6.111-10.477l0.863-0.504
			l6.111,10.477C210.997,137.178,215.062,145.078,213.19,152.977z"/>
	</g>
	<g clip-path="url(#SVGID_2_)">
		<path fill="#FFFFFF" d="M191.78,113.683c-4.278-1.006-8.231-4.078-11.13-8.65c-2.564-4.041-4.02-8.634-5.428-13.077l0.953-0.302
			c1.389,4.381,2.824,8.912,5.318,12.843c2.759,4.35,6.492,7.266,10.515,8.212L191.78,113.683z"/>
	</g>
	<g clip-path="url(#SVGID_2_)">
		<path fill="#FFFFFF" d="M173.991,140.323c-0.881-10.616,6.055-21.228,16.133-24.684l0.324,0.946
			c-9.657,3.311-16.305,13.48-15.461,23.655L173.991,140.323z"/>
	</g>
	<g clip-path="url(#SVGID_2_)">
		<path fill="#FFFFFF" d="M182.536,149.843l-0.99-0.146l2.172-14.739c0.529-3.581,1.129-7.641,3.089-11.04
			c1.223-2.12,2.955-3.946,5.01-5.28l0.545,0.839c-1.924,1.249-3.545,2.957-4.688,4.941c-1.865,3.234-2.425,7.022-2.966,10.687
			L182.536,149.843z"/>
	</g>
	<g clip-path="url(#SVGID_2_)">
		<path fill="#FFFFFF" d="M192.752,102.44c-1.399,0-2.645-1.091-3.609-3.172c-1.903-4.091-2.994-8.638-3.155-13.148l1-0.035
			c0.155,4.377,1.215,8.791,3.062,12.762c0.47,1.011,1.441,2.681,2.833,2.588l0.074,0.997
			C192.888,102.438,192.819,102.44,192.752,102.44z"/>
	</g>
	<g clip-path="url(#SVGID_2_)">
		
			<rect x="196.408" y="86.514" transform="matrix(0.9876 0.1571 -0.1571 0.9876 17.1726 -29.7732)" fill="#FFFFFF" width="1.001" height="14.441"/>
	</g>
	<g clip-path="url(#SVGID_2_)">
		<path fill="#FFFFFF" d="M16.05,81.063c-0.178,0-0.36-0.02-0.546-0.064c-0.984-0.232-1.608-1.062-1.551-2.064
			c0.059-1.039,0.83-1.851,1.875-1.976l0.118,0.993c-0.696,0.083-0.971,0.612-0.995,1.039c-0.023,0.406,0.17,0.891,0.783,1.035
			c0.728,0.174,1.421-0.3,1.672-0.856c0.122-0.271,0.186-0.652-0.208-0.929l0.577-0.817c0.708,0.5,0.917,1.327,0.542,2.157
			C17.966,80.361,17.093,81.063,16.05,81.063z"/>
	</g>
	<g clip-path="url(#SVGID_2_)">
		<path fill="#FFFFFF" d="M80.317,81.542c-11.721-1.179-24.399-1.186-36.674-1.174c-7.67,0-15.623,0.003-23.085-0.295l0.04-0.999
			c7.442,0.297,15.375,0.295,23.045,0.294c12.295-0.009,25.003-0.005,36.774,1.179L80.317,81.542z"/>
	</g>
	<g clip-path="url(#SVGID_2_)">
		<path fill="#FFFFFF" d="M16.946,90.438c-0.979,0-1.982-0.327-2.562-1.062c-0.415-0.527-0.496-1.228-0.218-1.875
			c0.309-0.72,0.999-1.215,1.8-1.29l0.094,0.996c-0.522,0.049-0.846,0.388-0.975,0.688c-0.133,0.311-0.102,0.625,0.085,0.862
			c0.511,0.648,1.808,0.879,2.834,0.503c0.764-0.279,1.389-0.84,1.769-1.574c-0.859-0.276-1.812-0.396-2.736-0.339l-0.062-0.998
			c1.259-0.078,2.527,0.125,3.654,0.585l0.439,0.18l-0.157,0.448c-0.434,1.238-1.368,2.199-2.564,2.637
			C17.924,90.355,17.438,90.438,16.946,90.438z"/>
	</g>
	<g clip-path="url(#SVGID_2_)">
		<path fill="#FFFFFF" d="M85.097,90.65c-14.16-1.693-28.634-1.568-42.634-1.444c-5.806,0.05-11.812,0.103-17.721,0.026l0.013-1
			c5.901,0.078,11.899,0.025,17.699-0.026c14.031-0.124,28.539-0.25,42.762,1.451L85.097,90.65z"/>
	</g>
	<g clip-path="url(#SVGID_2_)">
		<path fill="#FFFFFF" d="M126.003,43.455c-4.133,0-8.258-0.01-12.364-0.029l0.005-1c11.249,0.054,22.651,0.033,33.901-0.059
			l-0.092-4.576c-0.01-0.504-0.058-0.998-0.332-1.19c-0.178-0.125-0.468-0.136-0.802-0.138l-32.998-0.184
			c-0.579,0.007-0.967,0.096-1.065,0.298c-0.072,0.146-0.034,0.406-0.003,0.615l0.777,5.235l-0.989,0.146l-0.777-5.235
			c-0.045-0.309-0.114-0.775,0.094-1.2c0.425-0.87,1.545-0.862,1.97-0.859l32.997,0.184c0.39,0.002,0.923,0.005,1.37,0.319
			c0.728,0.51,0.748,1.509,0.758,1.989l0.111,5.588l-0.506,0.004C140.745,43.424,133.364,43.455,126.003,43.455z"/>
	</g>
	<g clip-path="url(#SVGID_2_)">
		<path fill="#FFFFFF" d="M121.421,33.654l-5.042-0.346c-0.355-0.025-0.892-0.062-1.281-0.446c-0.781-0.768-0.19-1.846,0.202-2.559
			l0.064-0.117c1.067-1.961,0.175-4.175-0.77-6.52c-0.832-2.064-1.692-4.198-1.298-6.36c0.255-1.406,1.066-2.802,2.41-4.152
			c1.832-1.838,4.125-3.163,6.63-3.832c1.183-0.316,2.406-0.483,3.588-0.645c1.573-0.215,3.06-0.417,4.479-0.941
			c3.026-1.116,5.456-3.738,6.34-6.842l0.961,0.273c-0.969,3.406-3.635,6.282-6.955,7.507c-1.521,0.561-3.132,0.781-4.688,0.993
			c-1.152,0.157-2.344,0.32-3.466,0.62c-2.335,0.623-4.472,1.858-6.179,3.572c-1.198,1.203-1.916,2.422-2.135,3.625
			c-0.341,1.877,0.464,3.875,1.243,5.808c0.99,2.456,2.013,4.996,0.72,7.371l-0.065,0.12c-0.261,0.476-0.619,1.127-0.377,1.365
			c0.117,0.115,0.385,0.143,0.649,0.161l3.883,0.267c-0.143-1.831-0.242-3.708,0.159-5.555c0.513-2.354,1.817-4.218,3.581-5.114
			c1.569-0.799,3.372-0.796,4.941-0.79l8.703,0.024c2.195,0.006,4.465,0.012,6.667,0.528c1.909,0.447,3.721,1.271,5.312,2.411
			c-2.345-8.468-6.292-16.641-11.468-23.722l0.807-0.59c5.547,7.588,9.702,16.413,12.017,25.521l0.4,1.573l-1.216-1.076
			c-1.729-1.53-3.832-2.617-6.081-3.144c-2.091-0.49-4.303-0.496-6.44-0.502l-8.703-0.024c-1.469-0.007-3.131-0.009-4.485,0.681
			c-1.495,0.76-2.608,2.377-3.057,4.436c-0.413,1.896-0.25,3.901-0.093,5.84L121.421,33.654z"/>
	</g>
	<g clip-path="url(#SVGID_2_)">
		<path fill="#FFFFFF" d="M103.943,185.178c-0.868,0-1.728-0.104-2.54-0.31c-3.973-1.005-7.161-3.815-9.972-6.295l0.661-0.75
			c2.727,2.404,5.817,5.131,9.556,6.076c3.474,0.879,7.919-0.271,9.344-3.708l0.924,0.383
			C110.625,183.689,107.229,185.178,103.943,185.178z"/>
	</g>
	<g clip-path="url(#SVGID_2_)">
		<path fill="#FFFFFF" d="M2.387,67.587c-0.126-9.813,2.939-18.582,8.412-24.059c8.548-8.558,21.434-8.854,33.9-8.419l28.865,1
			l-0.034,0.999l-28.865-1c-12.248-0.425-24.893-0.147-33.159,8.127C6.223,49.523,3.264,58.03,3.387,67.575L2.387,67.587z"/>
	</g>
	<g clip-path="url(#SVGID_2_)">
		<path fill="#FFFFFF" d="M114.546,78.16l-0.718-0.696c1.995-2.057,3.194-5.16,3.377-8.739c0.167-3.264-0.461-6.551-1.068-9.731
			l0.982-0.188c0.618,3.238,1.257,6.585,1.085,9.969C118.009,72.596,116.71,75.929,114.546,78.16z"/>
	</g>
	<g clip-path="url(#SVGID_2_)">
		<path fill="#FFFFFF" d="M27.149,56.679c-1.142,0-2.285-0.921-2.944-2.05c-0.149-0.254-0.29-0.521-0.432-0.789
			c-0.433-0.821-0.846-1.602-1.498-2.032c-1.041,0.96-1.929,2.062-2.648,3.28l-0.137,0.238l-0.869-0.495
			c0.047-0.083,0.095-0.166,0.143-0.248l0.524-0.909l0.039,0.023c0.725-1.059,1.578-2.021,2.547-2.875l0.243-0.214l0.294,0.135
			c1.13,0.516,1.697,1.59,2.246,2.629c0.135,0.255,0.269,0.509,0.411,0.75c0.514,0.882,1.703,1.936,2.619,1.408
			c0.297-0.171,0.581-0.511,0.854-0.84c0.524-0.628,1.173-1.415,2.169-1.1c0.421,0.132,0.694,0.428,0.935,0.688
			c0.138,0.149,0.268,0.29,0.403,0.373c0.43,0.264,1.096,0.072,2.033-0.59l4.027-2.844c0.373-0.263,0.882-0.622,1.501-0.633
			c0.425-0.005,0.804,0.15,1.135,0.291c3.518,1.498,7.347,2.044,11.105,1.594l0.119,0.993c-3.936,0.469-7.938-0.101-11.579-1.651
			c-0.299-0.127-0.55-0.238-0.762-0.227c-0.291,0.005-0.587,0.198-0.944,0.45l-4.026,2.844c-0.477,0.338-1.928,1.366-3.134,0.626
			c-0.252-0.155-0.444-0.363-0.613-0.546c-0.179-0.193-0.333-0.361-0.5-0.413c-0.318-0.1-0.594,0.175-1.102,0.786
			c-0.33,0.396-0.671,0.806-1.123,1.066C27.851,56.592,27.5,56.679,27.149,56.679z"/>
	</g>
	<g clip-path="url(#SVGID_2_)">
		<path fill="#FFFFFF" d="M32.858,64.88c-1.469,0-2.946-0.258-4.377-0.507c-2.443-0.426-4.749-0.828-6.906-0.017l-0.353-0.936
			c2.412-0.908,4.963-0.464,7.43-0.033c1.5,0.261,3.05,0.532,4.537,0.487c1.688-0.052,3.384-0.518,5.023-0.968l0.965-0.263
			c5.66-1.507,11.498-2.152,17.357-1.924l0.74,0.032c2.57,0.115,5.227,0.233,7.361-0.997c0.525-0.303,1.05-0.703,1.559-1.089
			c1.28-0.974,2.602-1.982,4.272-1.805c0.835,0.087,1.554,0.469,2.249,0.837c0.219,0.116,0.437,0.232,0.658,0.338
			c2.403,1.142,5.252,1.018,8.006,0.896c3.051-0.133,6.205-0.271,8.906,1.251l-0.491,0.871c-2.453-1.383-5.327-1.255-8.371-1.124
			c-2.877,0.125-5.851,0.256-8.479-0.992c-0.234-0.112-0.466-0.234-0.697-0.357c-0.639-0.339-1.242-0.659-1.885-0.727
			c-1.281-0.132-2.387,0.712-3.562,1.606c-0.533,0.406-1.084,0.825-1.665,1.16c-2.386,1.376-5.19,1.252-7.905,1.13l-0.735-0.032
			c-5.758-0.224-11.497,0.41-17.06,1.892l-0.958,0.26c-1.696,0.466-3.45,0.948-5.258,1.004C33.1,64.878,32.979,64.88,32.858,64.88z"
			/>
	</g>
	<g clip-path="url(#SVGID_2_)">
		
			<rect x="64.403" y="50.684" transform="matrix(0.9922 0.1247 -0.1247 0.9922 6.9225 -8.2053)" fill="#FFFFFF" width="9.181" height="1"/>
	</g>
	<g clip-path="url(#SVGID_2_)">
		
			<rect x="72.691" y="63.175" transform="matrix(0.9993 0.0374 -0.0374 0.9993 2.4401 -3.2431)" fill="#FFFFFF" width="30.624" height="1"/>
	</g>
	<g clip-path="url(#SVGID_2_)">
		<path fill="#FFFFFF" d="M190.969,62.438c-1.592,0-3.168-0.323-4.538-0.603c-6.732-1.378-15.111-3.094-20.657-8.724l0.713-0.702
			c5.332,5.414,13.545,7.095,20.146,8.446c2.104,0.431,4.725,0.965,6.96,0.173c0.443-0.158,0.87-0.365,1.322-0.583
			c0.765-0.37,1.555-0.752,2.441-0.886c1.161-0.173,2.278,0.104,3.361,0.372c0.356,0.088,0.713,0.177,1.069,0.248
			c2.845,0.566,5.872-0.021,8.301-1.614l0.188-0.123l0.217,0.058c4.968,1.332,10.088,2.197,15.218,2.573
			c1.471,0.106,3.002,0.149,4.167-0.6c0.579-0.374,1.033-0.923,1.514-1.505c0.432-0.522,0.878-1.063,1.44-1.498
			c1.545-1.192,3.495-1.292,5.381-1.39c0.652-0.034,1.327-0.069,1.96-0.15c1.537-0.198,3.082-1.09,3.757-2.17
			c0.373-0.598,0.458-1.209,0.253-1.817l-0.14-0.414l0.391-0.194c4.887-2.424,7.255-9.142,4.97-14.095
			c-0.112-0.245-0.235-0.487-0.357-0.729c-0.39-0.771-0.793-1.569-0.917-2.475c-0.109-0.794,0.013-1.567,0.13-2.313
			c0.089-0.56,0.172-1.089,0.161-1.613c-0.062-3.07-3.132-5.145-6.127-6.77l-0.764-0.414l0.741-0.452
			c2.023-1.234,2.094-4.317,0.891-6.312c-1.326-2.203-3.838-3.583-5.856-4.693c-6.864-3.772-14.163-7.28-21.237-5.23l-0.224,0.066
			c-0.67,0.198-1.43,0.424-2.199,0.262c-0.8-0.167-1.415-0.704-1.958-1.178l-0.248-0.214c-3.648-3.113-9.558-3.354-13.45-0.549
			l-0.584-0.812c4.318-3.113,10.631-2.855,14.683,0.6l0.257,0.222c0.494,0.431,0.962,0.839,1.506,0.953
			c0.524,0.11,1.1-0.061,1.709-0.242l0.229-0.068c7.445-2.159,14.95,1.44,21.999,5.314c2.123,1.167,4.766,2.62,6.231,5.053
			c1.309,2.171,1.311,5.446-0.574,7.189c3.019,1.711,5.908,3.92,5.976,7.254c0.013,0.613-0.082,1.211-0.173,1.79
			c-0.111,0.706-0.217,1.374-0.128,2.022c0.102,0.739,0.45,1.429,0.819,2.159c0.128,0.253,0.255,0.506,0.373,0.761
			c2.486,5.387,0.115,12.389-5.071,15.221c0.144,0.76-0.014,1.529-0.463,2.248c-0.835,1.337-2.635,2.396-4.478,2.633
			c-0.67,0.086-1.364,0.122-2.035,0.157c-1.812,0.094-3.524,0.183-4.821,1.183c-0.475,0.366-0.866,0.841-1.28,1.343
			c-0.509,0.615-1.034,1.251-1.744,1.709c-1.424,0.917-3.214,0.872-4.78,0.756c-5.12-0.375-10.229-1.232-15.191-2.547
			c-2.612,1.642-5.825,2.239-8.854,1.636c-0.372-0.074-0.743-0.166-1.115-0.258c-1.032-0.255-2.005-0.499-2.972-0.353
			c-0.736,0.111-1.425,0.444-2.153,0.797c-0.457,0.221-0.929,0.45-1.424,0.626C192.966,62.312,191.964,62.438,190.969,62.438z"/>
	</g>
	<g clip-path="url(#SVGID_2_)">
		<path fill="#FFFFFF" d="M206.99,50.792l-0.902-0.433c0.326-0.679,0.212-1.561-0.297-2.3c-0.51-0.739-1.292-1.164-2.044-1.098
			c-0.832,0.067-1.751,0.074-2.221-0.408c-0.215-0.22-0.311-0.509-0.275-0.835c0.035-0.315,0.197-0.558,0.368-0.773
			c0.272-0.344,0.571-0.667,0.87-0.989c0.42-0.454,0.816-0.882,1.137-1.365c0.582-0.875,0.749-1.805,0.446-2.488
			c-0.162-0.366-0.561-0.668-0.992-0.752c-0.181-0.035-0.526-0.059-0.779,0.186l-0.468,0.453l-0.316-0.569
			c-0.599-1.077-0.024-2.377,1.616-3.663c0.746-0.585,1.665-1.698,1.142-2.366c-0.208-0.266-0.633-0.453-1.043-0.633
			c-0.71-0.312-1.593-0.701-1.521-1.703c0.05-0.678,0.593-1.112,0.988-1.429c2.128-1.699,3.503-4.207,3.79-6.894
			c0.12-1.137,0.632-1.436,1.04-1.486c0.678-0.087,1.109,0.537,1.253,0.741c2.485,3.517,4.634,7.295,6.386,11.228l0.308,0.692
			l-5.116,0.078c1.188,1.422,2.452,2.805,3.767,4.119l0.582,0.582l-3.318,1.051c1.31,2.224,2.894,4.276,4.715,6.107l0.532,0.535
			l-0.7,0.282c-0.792,0.318-1.614,0.309-2.413,0.302c-0.521-0.004-1.018-0.01-1.49,0.074c-0.626,0.111-1.281,0.627-1.492,1.173
			c-0.107,0.277-0.083,0.51,0.073,0.713l-0.791,0.611c-0.372-0.482-0.448-1.08-0.215-1.685c0.335-0.869,1.281-1.625,2.249-1.797
			c0.565-0.101,1.132-0.094,1.677-0.089c0.438,0.005,0.857,0.01,1.255-0.04c-1.772-1.882-3.311-3.975-4.578-6.23l-0.302-0.536
			l2.934-0.93c-1.375-1.411-2.69-2.893-3.917-4.413l-0.645-0.798l5.66-0.086c-1.666-3.625-3.675-7.109-5.977-10.367
			c-0.211-0.299-0.308-0.323-0.315-0.324c0.001,0.003-0.114,0.109-0.166,0.599c-0.314,2.952-1.825,5.706-4.144,7.556
			c-0.296,0.237-0.613,0.491-0.631,0.733c-0.019,0.255,0.215,0.403,0.925,0.715c0.499,0.22,1.064,0.468,1.428,0.932
			c0.919,1.172,0.003,2.738-1.312,3.77c-0.451,0.353-1.349,1.139-1.451,1.866c0.301-0.092,0.632-0.107,0.973-0.042
			c0.749,0.146,1.422,0.667,1.715,1.329c0.441,0.997,0.245,2.286-0.527,3.446c-0.365,0.55-0.808,1.028-1.236,1.491
			c-0.281,0.304-0.563,0.608-0.82,0.932c-0.041,0.051-0.149,0.188-0.157,0.259c0.014,0.05,0.202,0.239,1.42,0.138
			c1.1-0.084,2.237,0.494,2.949,1.528S207.47,49.79,206.99,50.792z"/>
	</g>
	<g clip-path="url(#SVGID_2_)">
		<path fill="#FFFFFF" d="M216.352,49.873c-0.197-0.529-0.794-2.356-0.193-3.646c0.234-0.503,0.631-0.866,1.146-1.049
			c0.54-0.191,1.151-0.152,1.693-0.118c0.823,0.054,1.202,0.044,1.336-0.266c0.127-0.301-0.119-0.606-0.671-1.183
			c-0.545-0.569-1.161-1.214-1.034-2.09c0.115-0.792,0.773-1.316,1.844-1.5l-2.494-3.476l1.021,0.039
			c1.324,0.051,2.655-0.044,3.955-0.282c-0.624-3.584-2.033-7.047-4.092-10.045c-0.216-0.315-0.473-0.659-0.78-0.755
			c-0.759-0.236-1.505,1.042-1.715,1.44l-0.885-0.467c0.826-1.565,1.857-2.252,2.895-1.928c0.615,0.19,0.999,0.69,1.31,1.144
			c2.233,3.252,3.732,7.032,4.333,10.932l0.072,0.468l-0.463,0.098c-1.203,0.253-2.433,0.39-3.667,0.407l2.405,3.354h-0.974
			c-0.279,0-1.677,0.035-1.775,0.716c-0.058,0.393,0.343,0.812,0.767,1.254c0.564,0.59,1.268,1.325,0.868,2.265
			c-0.421,0.995-1.473,0.928-2.32,0.874c-0.466-0.03-0.948-0.061-1.294,0.062c-0.264,0.094-0.451,0.267-0.573,0.529
			c-0.287,0.614-0.199,1.743,0.224,2.875L216.352,49.873z"/>
	</g>
	<g clip-path="url(#SVGID_2_)">
		<path fill="#FFFFFF" d="M196.482,50.182l-0.949-0.317c0.384-1.146,0.861-2.571,0.509-3.824c-0.177-0.63-0.706-1.227-1.315-1.485
			c-0.297-0.126-0.742-0.227-1.177,0.008l-0.106,0.06c-0.229,0.133-0.576,0.335-0.988,0.223c-0.248-0.067-0.444-0.223-0.568-0.451
			c-0.261-0.479-0.098-1.086-0.041-1.261c0.266-0.824,0.641-1.603,1.118-2.32l-0.656-0.526l0.625-0.78l1.398,1.121l-0.287,0.387
			c-0.546,0.736-0.965,1.552-1.247,2.425c-0.072,0.227-0.06,0.429-0.031,0.478c-0.024-0.044,0.103-0.117,0.179-0.161l0.131-0.074
			c0.612-0.329,1.338-0.347,2.042-0.048c0.888,0.376,1.629,1.215,1.888,2.136C197.44,47.319,196.909,48.906,196.482,50.182z"/>
	</g>
	<g clip-path="url(#SVGID_2_)">
		<path fill="#FFFFFF" d="M200.254,28.074c-1.467-0.561-2.651-1.846-3.091-3.354l0.961-0.279c0.353,1.213,1.307,2.248,2.487,2.7
			L200.254,28.074z"/>
	</g>
	<g clip-path="url(#SVGID_2_)">
		<path fill="#FFFFFF" d="M168.674,67.625c-0.051,0-0.102,0-0.152-0.001c-0.913-0.02-2.166-0.241-2.946-1.187
			c-0.43-0.521-0.609-1.27-0.468-1.953c0.074-0.355,0.228-0.664,0.446-0.905c-0.362-0.272-0.938-0.338-1.744-0.398
			c-0.789-0.059-1.605-0.121-2.298-0.536c-1.239-0.744-1.551-2.396-1.219-3.642c0.33-1.245,1.157-2.25,1.888-3.136l0.771,0.636
			c-0.665,0.807-1.418,1.722-1.692,2.757c-0.236,0.886-0.049,2.038,0.767,2.528c0.489,0.293,1.185,0.346,1.857,0.396
			c1.047,0.078,2.233,0.167,2.818,1.229l0.25,0.452l-0.46,0.234c-0.262,0.134-0.365,0.394-0.405,0.588
			c-0.08,0.388,0.021,0.825,0.26,1.113c0.567,0.688,1.619,0.811,2.196,0.823c0.702,0.014,2.031-0.089,2.964-0.958
			c0.755-0.705,1.013-1.868,0.587-2.648l0.877-0.479c0.646,1.182,0.309,2.841-0.782,3.859
			C171.336,67.191,170.092,67.625,168.674,67.625z"/>
	</g>
	<g clip-path="url(#SVGID_2_)">
		<path fill="#FFFFFF" d="M154.158,67.349c-0.096,0-0.188-0.002-0.278-0.006c-1.223-0.057-2.149-0.506-2.608-1.266
			c-0.333-0.551-0.317-1.315,0.037-1.902c0.293-0.484,0.777-0.749,1.289-0.725l-0.059,0.998c-0.175-0.008-0.304,0.126-0.374,0.244
			c-0.163,0.27-0.179,0.634-0.038,0.868c0.38,0.627,1.29,0.76,1.799,0.784c0.989,0.043,1.837-0.194,2.388-0.67
			c0.527-0.453,0.862-1.346,0.487-1.999c-0.164-0.285-0.518-0.481-0.9-0.5c-0.143-0.001-0.5,0.008-0.698,0.287l-0.816-0.577
			c0.341-0.481,0.896-0.74,1.562-0.709c0.727,0.035,1.385,0.418,1.72,1c0.571,0.994,0.264,2.423-0.701,3.254
			C156.109,67.171,155.012,67.349,154.158,67.349z"/>
	</g>
	<g clip-path="url(#SVGID_2_)">
		<path fill="#FFFFFF" d="M111.972,155.267l-0.998-0.064c0.259-4.064,1.391-7.41,3.365-9.945c2.213-2.842,12.519-6.935,16.223-6.418
			l-0.135,0.99c-3.319-0.45-13.322,3.503-15.299,6.043C113.279,148.245,112.217,151.405,111.972,155.267z"/>
	</g>
	<g clip-path="url(#SVGID_2_)">
		<path fill="#FFFFFF" d="M225.169,225.626l0.695-3.335c0.852-4.088-0.156-8.796-2.838-13.258
			c-2.429-4.043-5.849-7.432-9.156-10.708c-0.313-0.311-0.628-0.632-0.961-0.598c-0.305,0.014-0.606,0.327-0.916,0.676
			c-10.824,12.261-28.146,15.43-42.028,16.82c-17.133,1.718-50.939-4.464-58.653-15.031l0.808-0.59
			c3.297,4.518,12.417,8.785,25.021,11.71c11.503,2.67,24.041,3.787,32.725,2.917c13.7-1.373,30.784-4.488,41.379-16.488
			c0.346-0.391,0.867-0.979,1.621-1.013c0.74-0.027,1.259,0.441,1.708,0.886c3.352,3.32,6.816,6.754,9.311,10.903
			c2.157,3.59,3.278,7.348,3.274,10.86c3.092-8.539,0.589-19.002-6.33-24.967l-0.107-0.093c-1.292-1.111-2.899-2.494-2.721-4.38
			c0.091-0.937,0.626-1.725,1.1-2.419c3.728-5.498,6.158-11.872,7.069-18.494l0.99,0.137c-0.932,6.772-3.419,13.294-7.191,18.858
			c-0.467,0.687-0.906,1.332-0.972,2.013c-0.131,1.371,1.201,2.517,2.376,3.527l0.108,0.093c8.033,6.926,10.367,19.654,5.312,28.978
			L225.169,225.626z"/>
	</g>
	<g clip-path="url(#SVGID_2_)">
		<path fill="#FFFFFF" d="M129.862,156.289c-1.257,0-2.587-0.45-3.359-1.591c-0.279-0.412-0.473-0.886-0.66-1.344
			c-0.379-0.929-0.651-1.502-1.225-1.636l0.228-0.975c1.117,0.262,1.546,1.309,1.923,2.231c0.176,0.43,0.342,0.836,0.562,1.162
			c0.756,1.116,2.4,1.35,3.641,1.003c1.418-0.396,2.659-1.42,3.755-2.322l0.637,0.771c-1.173,0.966-2.501,2.061-4.122,2.514
			C130.816,156.223,130.345,156.289,129.862,156.289z"/>
	</g>
	<g clip-path="url(#SVGID_2_)">
		<path fill="#FFFFFF" d="M154.928,170.604c-1.384,0-2.758-0.204-4.093-0.403l-6.598-0.985l0.148-0.988l6.597,0.985
			c1.555,0.23,3.166,0.474,4.729,0.366c0.924-0.061,1.864-0.242,2.773-0.419c0.661-0.128,1.323-0.256,1.99-0.345
			c2.604-0.345,5.24-0.074,7.788,0.188c1.531,0.157,3.115,0.32,4.662,0.345c2.408,0.032,4.911-0.258,7.32-0.544
			c4.125-0.489,8.39-0.995,12.472,0.142l-0.268,0.963c-3.894-1.084-7.872-0.611-12.086-0.111c-2.441,0.289-4.966,0.579-7.454,0.551
			c-1.591-0.025-3.196-0.19-4.749-0.35c-2.49-0.257-5.068-0.522-7.555-0.191c-0.647,0.085-1.289,0.21-1.931,0.334
			c-0.939,0.183-1.911,0.371-2.898,0.436C155.493,170.595,155.21,170.604,154.928,170.604z"/>
	</g>
	<g clip-path="url(#SVGID_2_)">
		<path fill="#FFFFFF" d="M148.386,178.759l-0.031-1c10.58-0.337,21.298-0.571,31.854-0.696l0.012,1
			C169.671,178.188,158.96,178.422,148.386,178.759z"/>
	</g>
	<g clip-path="url(#SVGID_2_)">
		<path fill="#FFFFFF" d="M145.969,187.982l-0.047-0.998c15.939-0.752,37.37-0.831,53.326-0.202l-0.039,1
			C183.278,187.153,161.883,187.234,145.969,187.982z"/>
	</g>
	<g clip-path="url(#SVGID_2_)">
		<path fill="#FFFFFF" d="M138.052,197.003l-0.037-1c18.546-0.694,37.343-0.79,55.87-0.287l-0.027,1
			C175.354,196.213,156.578,196.311,138.052,197.003z"/>
	</g>
	<g clip-path="url(#SVGID_2_)">
		<path fill="#FFFFFF" d="M136.851,204.001c-1.581,0-2.957-0.014-4.068-0.044l0.027-1c9.718,0.263,39.738-0.703,49.415-1.592
			l0.092,0.996C173.723,203.15,149.125,204.001,136.851,204.001z"/>
	</g>
	<g clip-path="url(#SVGID_2_)">
		<path fill="#FFFFFF" d="M86.496,151.598l-0.28-0.959c0.671-0.196,1.329-0.66,1.465-1.033c0.041-0.112,0.029-0.201-0.04-0.306
			c-0.062-0.093-0.188-0.189-0.321-0.291c-0.269-0.206-0.604-0.463-0.696-0.92c-0.131-0.65,0.321-1.091,0.651-1.412
			c0.155-0.151,0.315-0.308,0.387-0.449c0.165-0.324-0.032-0.701-0.366-1.29c-0.248-0.436-0.528-0.929-0.59-1.476
			c-0.114-1.025,0.548-1.855,1.131-2.588c0.636-0.798,1.01-1.323,0.834-1.882c-0.129-0.413-0.563-0.716-1.022-1.037
			c-0.562-0.393-1.198-0.837-1.412-1.602c-0.141-0.506-0.046-0.998,0.038-1.432c0.035-0.183,0.071-0.365,0.086-0.547
			c0.071-0.861-0.529-1.551-1.114-1.909c-0.585-0.359-1.471-0.58-2.207-0.126l-0.525-0.852c0.937-0.577,2.184-0.531,3.254,0.124
			c1.07,0.656,1.679,1.746,1.589,2.845c-0.018,0.218-0.059,0.437-0.101,0.654c-0.069,0.357-0.134,0.694-0.057,0.974
			c0.117,0.419,0.557,0.726,1.021,1.051c0.55,0.384,1.173,0.819,1.404,1.558c0.347,1.106-0.372,2.008-1.006,2.804
			c-0.508,0.638-0.988,1.239-0.919,1.854c0.038,0.342,0.246,0.707,0.465,1.093c0.378,0.664,0.806,1.417,0.389,2.237
			c-0.146,0.289-0.377,0.514-0.581,0.712c-0.229,0.224-0.391,0.391-0.369,0.499c0.018,0.089,0.173,0.208,0.324,0.322
			c0.184,0.141,0.391,0.3,0.546,0.532c0.248,0.372,0.298,0.788,0.147,1.202C88.329,150.744,87.344,151.351,86.496,151.598z"/>
	</g>
	<g clip-path="url(#SVGID_2_)">
		<path fill="#FFFFFF" d="M58.893,164.097c-0.132,0-0.264-0.012-0.393-0.037c-0.601-0.117-1.04-0.491-1.203-1.027l0.957-0.291
			c0.067,0.221,0.275,0.305,0.438,0.337c0.391,0.075,0.854-0.078,1.081-0.358c0.488-0.604,0.492-1.516,0.452-2.476l-0.233-5.599
			c-0.042-0.983-0.107-1.784-0.533-2.4c-0.226-0.326-0.623-0.567-1.014-0.614c-0.181-0.023-0.437-0.01-0.639,0.169
			c-0.342,0.302-0.394,0.9-0.417,1.487l-0.412,10.306l-0.999-0.039l0.412-10.307c0.024-0.594,0.064-1.587,0.754-2.197
			c0.375-0.331,0.882-0.472,1.422-0.412c0.671,0.082,1.329,0.479,1.715,1.039c0.624,0.902,0.671,2.025,0.709,2.927l0.233,5.6
			c0.037,0.875,0.092,2.197-0.674,3.146C60.17,163.816,59.528,164.097,58.893,164.097z"/>
	</g>
	<g clip-path="url(#SVGID_2_)">
		<path fill="#FFFFFF" d="M52.855,209.289c-1.25,0-2.505-0.122-3.727-0.275c-1.72-0.215-3.604-0.639-4.53-2.157
			c-0.645-1.058-0.613-2.323-0.484-3.533c0.208-1.943,0.588-3.877,1.131-5.755c-1.519-0.203-3.068-0.519-4.374-1.367
			c-1.472-0.957-2.677-2.912-2.132-4.795c0.512-1.772,2.25-2.718,3.618-3.199c3.247-1.139,6.88-0.928,9.97,0.582l-0.439,0.898
			c-2.85-1.393-6.204-1.588-9.199-0.537c-0.938,0.33-2.574,1.098-2.989,2.533c-0.41,1.416,0.553,2.923,1.716,3.68
			c1.296,0.842,2.886,1.089,4.537,1.286l0.596,0.07l-0.177,0.573c-0.616,1.995-1.041,4.06-1.263,6.136
			c-0.111,1.035-0.146,2.104,0.343,2.907c0.705,1.155,2.316,1.5,3.8,1.686c2.503,0.313,5.144,0.495,7.5-0.298
			c2.105-0.709,4.34-2.549,4.587-5.062l0.143-1.452l0.778,1.234c0.162,0.257,0.393,0.404,0.706,0.451
			c0.719,0.106,1.812-0.328,2.661-1.061c1.015-0.873,3.291-3.148,2.521-5.408c-0.345-1.015-1.27-1.798-2.128-2.431
			c-1.661-1.226-3.464-2.265-5.359-3.088c-0.105-0.046-0.213-0.092-0.323-0.136c-0.595,0.716-1.684,1.147-2.575,1.319l-0.431,0.083
			l-0.138-0.417c-0.134-0.403-0.081-0.846,0.149-1.245c0.277-0.48,0.787-0.85,1.33-0.961c0.373-0.08,0.737-0.063,1.09,0.003
			c-0.006-0.042-0.017-0.085-0.032-0.13c-0.149-0.442-0.746-0.688-1.368-0.886c-0.604-0.194-3.651-1.067-4.347,0.601l-0.923-0.385
			c0.679-1.628,2.764-2.063,5.573-1.169c0.587,0.188,1.68,0.537,2.012,1.519c0.086,0.254,0.112,0.509,0.078,0.758
			c0.104,0.042,0.205,0.085,0.304,0.129c1.963,0.854,3.832,1.931,5.553,3.2c0.983,0.725,2.047,1.637,2.481,2.913
			c0.966,2.837-1.647,5.482-2.815,6.488c-0.825,0.711-2.222,1.475-3.461,1.292c-0.236-0.035-0.454-0.105-0.651-0.207
			c-0.667,2.481-2.942,4.269-5.095,4.993C55.712,209.129,54.287,209.289,52.855,209.289z M59.141,190.501
			c-0.09,0.002-0.179,0.012-0.266,0.029c-0.229,0.048-0.461,0.2-0.606,0.392C58.599,190.807,58.898,190.662,59.141,190.501z"/>
	</g>
	<g clip-path="url(#SVGID_2_)">
		<path fill="#FFFFFF" d="M237.142,172.845c-0.616,0-1.218-0.131-1.767-0.482c-0.906-0.58-1.105-1.795-0.833-2.643
			c0.241-0.751,0.822-1.208,1.55-1.156l-0.024,0.468l3.582-0.056c0.412-0.011,1.259-0.02,1.73,0.592
			c0.262,0.34,0.337,0.748,0.21,1.15c-0.245,0.78-1.195,1.398-1.975,1.643C238.826,172.609,237.971,172.844,237.142,172.845z
			 M236.009,169.561c-0.242,0-0.415,0.156-0.515,0.465c-0.157,0.491-0.026,1.209,0.42,1.495c0.922,0.592,2.24,0.252,3.401-0.113
			c0.607-0.191,1.212-0.644,1.32-0.989c0.029-0.092,0.017-0.157-0.047-0.239c-0.146-0.19-0.547-0.214-0.924-0.203l-3.623,0.057
			l-0.008-0.471C236.025,169.562,236.017,169.561,236.009,169.561z"/>
	</g>
	<g clip-path="url(#SVGID_2_)">
		<path fill="#FFFFFF" d="M33.185,30.479l-1.247-8.942c-0.056-0.399-0.16-1.143,0.326-1.665c0.465-0.499,1.12-0.463,1.646-0.433
			c0.133,0.007,0.264,0.017,0.39,0.013c1.442-0.024,2.405-1.785,2.47-3.401c0.028-0.695-0.039-1.39-0.109-2.125
			c-0.104-1.085-0.213-2.208,0.013-3.326c0.07-0.349,0.212-0.848,0.643-1.144c0.548-0.378,1.225-0.201,1.587-0.104l6.272,1.646
			c0.605,0.16,1.285,0.304,1.698,0.003c0.335-0.243,0.467-0.752,0.583-1.297c0.842-3.961,1.657-7.978,2.425-11.937l0.122-0.63
			l12.588,5.904c0.495,0.232,0.938,0.419,1.313,0.32c0.409-0.104,0.724-0.538,1.036-1.011l3.788-5.738l0.421,0.296
			c1.739,1.22,3.364,2.62,4.836,4.164l5.78-3.548l0.278,0.311c1.081,1.207,1.604,2.887,1.398,4.494l-0.992-0.127
			c0.152-1.186-0.178-2.42-0.89-3.378l-5.748,3.529l-0.279-0.3c-1.38-1.485-2.906-2.838-4.541-4.026l-3.218,4.875
			c-0.321,0.486-0.807,1.221-1.625,1.429c-0.757,0.191-1.496-0.154-1.984-0.384L50.74-1.413c-0.732,3.761-1.508,7.566-2.306,11.324
			c-0.119,0.562-0.299,1.411-0.974,1.899c-0.831,0.604-1.943,0.312-2.539,0.155l-6.272-1.646c-0.309-0.081-0.616-0.141-0.766-0.039
			c-0.098,0.068-0.173,0.237-0.229,0.518c-0.196,0.974-0.1,1.974,0.002,3.033c0.071,0.736,0.145,1.498,0.113,2.261
			c-0.085,2.116-1.399,4.326-3.452,4.361c-0.153,0.003-0.305-0.006-0.462-0.014c-0.432-0.023-0.725-0.028-0.859,0.116
			c-0.142,0.153-0.114,0.513-0.067,0.845l1.247,8.942L33.185,30.479z"/>
	</g>
	<g clip-path="url(#SVGID_2_)">
		<path fill="#FFFFFF" d="M50.357,24.508l-0.97-0.233c0.083-0.504-0.019-1.045-0.279-1.487l0.86-0.509
			c0.033,0.055,0.063,0.111,0.093,0.168c0.265-0.548,0.606-1.073,1.079-1.5c0.605-0.548,1.45-0.844,2.246-0.805
			c0.644,0.035,1.191,0.288,1.582,0.729c0.12,0.135,0.225,0.289,0.328,0.443c0.146,0.219,0.273,0.409,0.426,0.477
			c0.102,0.046,0.188,0.045,0.289-0.002c0.322-0.15,0.688-0.716,0.868-1.347l0.144-0.504l1.74,0.59l5.156-5.509l0.73,0.684
			l-5.597,5.979l-1.386-0.47c-0.256,0.609-0.673,1.224-1.234,1.484c-0.364,0.169-0.751,0.173-1.119,0.008
			c-0.416-0.186-0.646-0.53-0.849-0.834c-0.077-0.116-0.154-0.233-0.244-0.335c-0.266-0.3-0.63-0.38-0.889-0.395
			c-0.527-0.024-1.114,0.181-1.52,0.548C51.029,22.396,50.672,23.519,50.357,24.508z"/>
	</g>
	<g clip-path="url(#SVGID_2_)">
		<path fill="#FFFFFF" d="M64.379,12.876c-1.603-1.096-3.853-1.257-5.595-0.399l-0.441-0.897c2.089-1.027,4.68-0.842,6.601,0.471
			L64.379,12.876z"/>
	</g>
	<g clip-path="url(#SVGID_2_)">
		<path fill="#FFFFFF" d="M56.535,27.405c-0.471,0-0.942-0.033-1.416-0.105c-1.664-0.254-3.249-0.996-4.582-2.144l0.652-0.758
			c1.191,1.025,2.602,1.687,4.081,1.913c2.278,0.351,4.522-0.322,6.9-1.032c2.502-0.746,5.089-1.519,7.699-0.98l-0.202,0.979
			c-2.365-0.487-4.718,0.216-7.211,0.959C60.528,26.814,58.546,27.405,56.535,27.405z"/>
	</g>
	<g clip-path="url(#SVGID_2_)">
		<path fill="#FFFFFF" d="M316.849,150.3l-1.212-1.058c-5.829-5.087-10.118-11.68-12.404-19.066l-0.076-0.247
			c-0.324-1.055-0.659-2.146-1.38-2.894c-0.786-0.817-1.941-1.174-3.259-1.523c-11.595-3.084-23.531-5.288-35.479-6.551l0.105-0.994
			c11.998,1.268,23.985,3.481,35.63,6.578c1.411,0.375,2.759,0.795,3.723,1.797c0.886,0.92,1.256,2.126,1.615,3.293l0.075,0.245
			c2.036,6.579,5.872,12.73,10.88,17.49l-3.572-13.951c-0.52-2.028-0.905-4.551,0.734-6.057c1.026-0.943,2.464-1.085,3.73-1.143
			c3.707-0.172,7.526,0.019,11.219,0.202c7.882,0.388,16.022,0.789,23.234-2.322c2.968-1.28,5.168-2.95,6.539-4.963
			c1.605-2.355,2.345-5.562,2.26-9.802c-0.174-8.498-3.101-16.902-8.242-23.665c-3.579-4.71-7.934-8.196-12.594-10.08
			c-4.604-1.861-9.647-2.271-14.419-2.531c-7.637-0.417-15.39-0.482-22.886-0.545c-0.352-0.016-33.463-1.554-56.376-0.974l-0.025-1
			c22.95-0.58,56.097,0.959,56.429,0.975c7.489,0.062,15.253,0.127,22.913,0.546c4.855,0.265,9.993,0.684,14.739,2.603
			c4.826,1.951,9.327,5.548,13.016,10.401c5.268,6.931,8.268,15.542,8.445,24.25c0.089,4.455-0.707,7.852-2.434,10.385
			c-1.479,2.172-3.824,3.962-6.969,5.319c-7.428,3.203-15.689,2.796-23.68,2.401c-3.669-0.181-7.463-0.367-11.125-0.202
			c-1.09,0.051-2.319,0.164-3.1,0.881c-1.248,1.147-0.892,3.313-0.441,5.072L316.849,150.3z"/>
	</g>
	<g clip-path="url(#SVGID_2_)">
		<path fill="#FFFFFF" d="M284.617,177.714l-1.464-0.569c-0.41-0.16-10.097-3.965-13.481-8.256l-0.147-0.188
			c-0.98-1.245-1.994-2.533-3.38-3.123c-1.167-0.497-2.498-0.473-3.739-0.451l-26.521,0.411c-4.067,0.058-8.827-0.114-11.568-3.369
			c-1.394-1.656-1.939-3.883-1.537-6.27c0.525-3.113,2.615-6.166,5.324-7.778c3.726-2.217,8.129-2.501,11.549-2.501
			c1.379,0,2.739,0.051,4.016,0.103c5.007,0.206,11.228,0.363,17.243,0.515c12.614,0.318,24.529,0.619,27.935,1.348
			c5.353,1.146,11.125,4.662,13.404,7.265c2.271,2.591,1.24,6.806-1.105,8.968c-1.996,1.838-4.812,2.818-8.865,3.085
			c-0.877,0.058-1.758,0.085-2.639,0.112c-2.148,0.067-4.369,0.137-6.451,0.677c-0.547,0.142-1.153,0.343-1.492,0.759
			c-1.447,1.774,0.993,6.343,2.055,7.953L284.617,177.714z M263.121,164.12c1.119,0,2.307,0.065,3.415,0.538
			c1.622,0.69,2.716,2.08,3.774,3.425l0.146,0.187c2.48,3.145,8.837,6.138,11.666,7.362c-1.131-2.037-2.829-5.817-1.201-7.813
			c0.521-0.64,1.312-0.913,2.018-1.096c2.188-0.567,4.467-0.639,6.67-0.707c0.87-0.027,1.739-0.055,2.604-0.111
			c3.812-0.251,6.436-1.147,8.254-2.823c2.007-1.849,2.924-5.413,1.031-7.573c-2.174-2.481-7.709-5.843-12.861-6.944
			c-3.314-0.709-15.737-1.023-27.75-1.326c-6.021-0.152-12.245-0.31-17.26-0.515c-1.266-0.052-2.615-0.103-3.975-0.103
			c-3.292,0-7.521,0.269-11.037,2.36c-2.468,1.469-4.371,4.25-4.85,7.085c-0.25,1.48-0.225,3.63,1.316,5.459
			c2.462,2.925,6.95,3.068,10.787,3.014l26.521-0.411C262.633,164.123,262.877,164.12,263.121,164.12z"/>
	</g>
	<g clip-path="url(#SVGID_2_)">
		<path fill="#FFFFFF" d="M241.803,158.626c-0.289,0-0.577-0.035-0.857-0.109c-1.595-0.419-2.792-2.036-2.727-3.681l1,0.039
			c-0.048,1.195,0.822,2.37,1.98,2.675c1.154,0.303,2.491-0.293,3.038-1.358l0.891,0.457
			C244.508,157.855,243.151,158.626,241.803,158.626z"/>
	</g>
	<g clip-path="url(#SVGID_2_)">
		<rect x="248.9" y="153.612" fill="#FFFFFF" width="1" height="3.722"/>
	</g>
	<g clip-path="url(#SVGID_2_)">
		<path fill="#FFFFFF" d="M247.602,211.43c-0.155,0-0.308-0.015-0.454-0.044c-0.6-0.121-1.044-0.486-1.284-1.055l-0.126-0.296
			l0.217-0.236c4.954-5.424,7.678-12.745,7.474-20.087c-0.097-3.483-1.732-8.765-5.844-9.036c-1.11-0.079-2.355,0.232-3.559,0.53
			c-2.183,0.537-4.44,1.095-6.012-0.615c-0.227-0.246-0.41-0.52-0.588-0.783c-0.303-0.45-0.564-0.839-0.951-0.997
			c-0.488-0.196-1.085,0.015-1.715,0.24c-0.203,0.072-0.405,0.144-0.604,0.204c-2.405,0.714-4.828-0.373-6.442-1.254l0.479-0.877
			c2.346,1.28,4.099,1.642,5.678,1.172c0.183-0.055,0.368-0.121,0.555-0.188c0.745-0.266,1.59-0.565,2.428-0.224
			c0.669,0.272,1.06,0.853,1.403,1.364c0.164,0.244,0.319,0.475,0.495,0.665c1.169,1.274,2.961,0.832,5.036,0.32
			c1.277-0.314,2.598-0.637,3.864-0.557c4.274,0.283,6.646,5.248,6.777,10.007c0.208,7.473-2.517,14.926-7.484,20.51
			c0.103,0.108,0.235,0.178,0.402,0.211c0.7,0.148,1.921-0.376,2.721-1.152c7.399-7.197,12.219-17.217,13.223-27.49l0.085-0.86
			l0.703,0.502c7.007,5.003,16.553,3.994,25.724,2.532c3.115-0.495,6.292-1.177,7.911-3.54l0.824,0.564
			c-1.843,2.691-5.248,3.434-8.578,3.964c-9.08,1.444-18.531,2.45-25.763-2.231c-1.2,10.211-6.066,20.111-13.432,27.276
			C249.969,210.743,248.694,211.43,247.602,211.43z"/>
	</g>
	<g clip-path="url(#SVGID_2_)">
		<path fill="#FFFFFF" d="M86.514,2.744c-0.405,0-0.806-0.073-1.186-0.222c-1.221-0.478-2.047-1.704-2.155-3.201
			c-0.098-1.346,0.43-2.553,1.389-3.217l-0.354-0.548c1.096-0.708,2.546-0.779,3.881-0.194c1.286,0.565,2.18,1.638,2.391,2.869
			c0.219,1.28-0.353,2.651-1.491,3.578C88.234,2.423,87.363,2.744,86.514,2.744z M84.958-3.724l0.318,0.559
			C84.369-2.649,84.11-1.58,84.17-0.751c0.079,1.092,0.676,2.011,1.522,2.341c0.837,0.329,1.833,0.12,2.665-0.557
			c0.859-0.7,1.295-1.709,1.137-2.634c-0.154-0.899-0.83-1.692-1.808-2.122C86.761-4.13,85.739-4.125,84.958-3.724z"/>
	</g>
	<g clip-path="url(#SVGID_2_)">
		<path fill="#FFFFFF" d="M77.181,9.776c-1.114,0-2.159-0.689-2.756-1.833c-0.629-1.203-0.563-2.525,0.172-3.449l0.783,0.622
			c-0.58,0.73-0.416,1.7-0.069,2.364c0.347,0.664,1.044,1.344,1.979,1.293c0.93-0.059,1.54-0.832,1.799-1.535
			c0.26-0.703,0.299-1.685-0.368-2.335l0.697-0.717c0.846,0.824,1.08,2.126,0.609,3.398c-0.471,1.273-1.495,2.111-2.674,2.186
			C77.296,9.774,77.238,9.776,77.181,9.776z"/>
	</g>
	<g clip-path="url(#SVGID_2_)">
		<path fill="#FFFFFF" d="M18.04,102.315c-1.413,0-2.7-0.978-2.877-2.193c-0.167-1.149,0.633-2.334,1.948-2.884l0.386,0.923
			c-0.879,0.367-1.444,1.131-1.344,1.816c0.094,0.642,0.914,1.307,1.912,1.338c0.54-0.005,1.086-0.258,1.393-0.644
			c0.12-0.152,0.251-0.387,0.193-0.648c-0.101-0.452-0.771-0.914-1.535-0.869l-0.066-0.998c1.208-0.077,2.357,0.66,2.577,1.649
			c0.113,0.503-0.024,1.032-0.386,1.487c-0.494,0.623-1.323,1.014-2.166,1.022C18.062,102.315,18.051,102.315,18.04,102.315z"/>
	</g>
	<g clip-path="url(#SVGID_2_)">
		<path fill="#FFFFFF" d="M85.634,102.814c-6.819-0.409-14.43-0.614-22.488-0.831c-12.336-0.332-25.092-0.674-35.637-1.804
			l0.106-0.994c10.505,1.125,23.241,1.467,35.557,1.798c8.066,0.217,15.685,0.422,22.521,0.832L85.634,102.814z"/>
	</g>
	<g clip-path="url(#SVGID_2_)">
		<path fill="#FFFFFF" d="M19.379,112.027c-0.254,0-0.506-0.031-0.748-0.095c-0.792-0.208-1.434-0.76-1.717-1.474
			c-0.234-0.591-0.184-1.223,0.136-1.733l0.848,0.53c-0.205,0.327-0.122,0.664-0.054,0.835c0.164,0.414,0.563,0.75,1.042,0.875
			c0.525,0.138,1.159,0.037,1.652-0.263c0.326-0.199,0.547-0.464,0.606-0.728c0.074-0.332-0.108-0.628-0.224-0.776
			c-0.318-0.407-0.858-0.669-1.408-0.683l0.025-1c0.842,0.021,1.673,0.431,2.171,1.068c0.386,0.494,0.532,1.066,0.412,1.609
			c-0.12,0.536-0.497,1.02-1.062,1.364C20.553,111.865,19.959,112.027,19.379,112.027z"/>
	</g>
	<g clip-path="url(#SVGID_2_)">
		<path fill="#FFFFFF" d="M85.56,114.089c-9.613-0.913-19.395-1.188-28.855-1.454c-9.477-0.267-19.275-0.542-28.922-1.458
			l0.095-0.995c9.613,0.913,19.395,1.188,28.855,1.454c9.477,0.267,19.275,0.542,28.922,1.458L85.56,114.089z"/>
	</g>
	<g clip-path="url(#SVGID_2_)">
		<rect x="91.167" y="95.917" fill="#FFFFFF" width="1" height="7.728"/>
	</g>
	<g clip-path="url(#SVGID_2_)">
		
			<rect x="91.078" y="106.705" transform="matrix(0.9466 0.3225 -0.3225 0.9466 39.4683 -23.7925)" fill="#FFFFFF" width="0.905" height="1"/>
	</g>
	<g clip-path="url(#SVGID_2_)">
		<rect x="95.346" y="167.527" fill="#FFFFFF" width="1" height="2.505"/>
	</g>
	<g clip-path="url(#SVGID_2_)">
		<rect x="102.444" y="170.032" fill="#FFFFFF" width="1" height="2.923"/>
	</g>
	<g clip-path="url(#SVGID_2_)">
		<path fill="#FFFFFF" d="M9.376,138.806l-0.996-0.088c0.887-10.139,1.176-20.44,0.86-30.618c-0.283-9.117-1.35-18.44-7.188-24.878
			c-3.258-3.594-7.882-6.123-14.136-7.73l0.249-0.969c6.449,1.658,11.233,4.284,14.628,8.027c6.055,6.678,7.158,16.211,7.447,25.519
			C10.558,118.286,10.267,128.627,9.376,138.806z"/>
	</g>
	<g clip-path="url(#SVGID_2_)">
		<path fill="#FFFFFF" d="M-16.558,58.262l-0.611-0.791c1.544-1.192,3.494-1.293,5.379-1.39c0.652-0.034,1.327-0.069,1.959-0.15
			c1.538-0.198,3.083-1.091,3.758-2.171c0.373-0.597,0.458-1.208,0.252-1.816l-0.14-0.414l0.392-0.194
			c4.886-2.425,7.254-9.144,4.97-14.096c-0.113-0.245-0.235-0.487-0.358-0.73c-0.39-0.771-0.793-1.568-0.916-2.474
			c-0.108-0.794,0.013-1.566,0.131-2.312c0.088-0.56,0.171-1.088,0.161-1.613c-0.016-0.788-0.226-1.528-0.642-2.262l0.87-0.493
			c0.493,0.87,0.752,1.79,0.771,2.734c0.012,0.613-0.082,1.211-0.173,1.789c-0.111,0.706-0.216,1.373-0.127,2.021
			c0.1,0.74,0.449,1.429,0.817,2.158c0.128,0.253,0.256,0.506,0.374,0.762c2.485,5.387,0.115,12.389-5.072,15.222
			c0.144,0.759-0.013,1.528-0.461,2.247c-0.835,1.338-2.635,2.396-4.479,2.634c-0.671,0.086-1.365,0.122-2.036,0.157
			C-13.55,57.172-15.261,57.261-16.558,58.262z"/>
	</g>
	<g clip-path="url(#SVGID_2_)">
		<path fill="#FFFFFF" d="M66.849,150.299l-1.211-1.057c-5.828-5.085-10.118-11.678-12.405-19.066l-0.075-0.242
			c-0.325-1.057-0.66-2.149-1.381-2.898c-0.786-0.817-1.941-1.174-3.259-1.523c-11.593-3.084-23.529-5.288-35.478-6.551l0.105-0.994
			c12,1.268,23.987,3.481,35.629,6.578c1.412,0.375,2.759,0.794,3.723,1.797c0.886,0.921,1.257,2.129,1.616,3.298l0.074,0.241
			c2.069,6.682,5.816,12.697,10.881,17.492l-3.573-13.954c-0.519-2.029-0.904-4.552,0.734-6.057c1.026-0.943,2.464-1.085,3.73-1.143
			c3.708-0.172,7.527,0.019,11.219,0.202c7.879,0.387,16.022,0.789,23.235-2.322c2.966-1.28,5.167-2.95,6.539-4.964
			c1.606-2.356,2.345-5.562,2.259-9.801c-0.173-8.497-3.099-16.902-8.24-23.666c-3.581-4.711-7.937-8.196-12.596-10.08
			c-4.604-1.861-9.647-2.271-14.419-2.531c-7.637-0.417-15.389-0.482-22.886-0.545c-0.351-0.016-33.465-1.554-56.376-0.974l-0.025-1
			c22.954-0.577,56.097,0.959,56.429,0.975c7.489,0.062,15.252,0.127,22.913,0.546c4.855,0.265,9.993,0.684,14.739,2.603
			c4.826,1.951,9.327,5.547,13.017,10.401c5.268,6.932,8.267,15.544,8.444,24.25c0.09,4.454-0.705,7.85-2.433,10.385
			c-1.481,2.173-3.826,3.962-6.969,5.319c-7.427,3.202-15.69,2.796-23.68,2.401c-3.669-0.18-7.463-0.367-11.125-0.202
			c-1.09,0.051-2.32,0.164-3.099,0.881c-1.248,1.146-0.892,3.312-0.442,5.072L66.849,150.299z"/>
	</g>
	<g clip-path="url(#SVGID_2_)">
		<path fill="#FFFFFF" d="M34.617,177.714l-1.463-0.569c-0.411-0.16-10.097-3.965-13.481-8.256l-0.151-0.192
			c-0.979-1.243-1.991-2.529-3.376-3.118c-1.15-0.488-2.523-0.471-3.74-0.451l-21.247,0.329l-0.016-1l21.247-0.329
			c1.312-0.021,2.801-0.041,4.146,0.531c1.62,0.689,2.713,2.077,3.77,3.42l0.151,0.191c2.48,3.144,8.836,6.138,11.666,7.362
			c-1.13-2.036-2.829-5.816-1.202-7.812c0.523-0.641,1.313-0.914,2.017-1.097c2.189-0.567,4.468-0.639,6.671-0.707
			c0.869-0.027,1.739-0.055,2.604-0.111c3.812-0.251,6.435-1.147,8.252-2.823c2.007-1.849,2.925-5.413,1.033-7.572
			c-2.175-2.482-7.711-5.844-12.863-6.945c-3.315-0.71-15.746-1.023-27.766-1.326c-6.014-0.152-12.233-0.309-17.243-0.514l0.041-1
			c5.002,0.205,11.216,0.362,17.227,0.514c12.622,0.318,24.544,0.619,27.95,1.348c5.352,1.146,11.125,4.663,13.406,7.266
			c2.271,2.59,1.239,6.805-1.107,8.967c-1.995,1.838-4.812,2.818-8.865,3.085c-0.876,0.058-1.757,0.085-2.638,0.112
			c-2.148,0.067-4.37,0.137-6.452,0.677c-0.547,0.142-1.152,0.343-1.493,0.76c-1.446,1.773,0.994,6.342,2.056,7.952L34.617,177.714z
			"/>
	</g>
	<g clip-path="url(#SVGID_2_)">
		<path fill="#FFFFFF" d="M11.354,157.449c-0.673,0-1.261-0.426-1.794-0.812c-0.413-0.299-0.84-0.608-1.25-0.678
			c-0.415-0.07-0.867,0.096-1.346,0.272c-0.371,0.138-0.753,0.279-1.17,0.336c-0.861,0.129-1.705-0.488-1.985-1.12
			c-0.221-0.499-0.112-1,0.292-1.34l0.644,0.766c-0.042,0.035-0.07,0.059-0.021,0.169c0.124,0.28,0.581,0.574,0.936,0.535
			c0.308-0.042,0.624-0.159,0.958-0.283c0.555-0.206,1.184-0.437,1.862-0.321c0.638,0.109,1.185,0.505,1.667,0.854
			c0.635,0.46,1.044,0.732,1.453,0.571l0.372,0.928C11.757,157.412,11.552,157.449,11.354,157.449z"/>
	</g>
	<g clip-path="url(#SVGID_2_)">
		<path fill="#FFFFFF" d="M17.582,160.766l-0.955-0.295c0.726-2.352,1.746-4.605,3.034-6.7l0.852,0.523
			C19.269,156.317,18.283,158.494,17.582,160.766z"/>
	</g>
	<g clip-path="url(#SVGID_2_)">
		<path fill="#FFFFFF" d="M25.721,159.29c-0.586,0-1.165-0.28-1.696-0.537c-0.494-0.24-0.989-0.469-1.455-0.479l-0.016-1
			c0.687,0.002,1.334,0.303,1.906,0.579c0.761,0.368,1.247,0.58,1.647,0.319c0.187-0.12,0.332-0.354,0.486-0.602
			c0.056-0.09,0.112-0.18,0.171-0.267c0.722-1.067,1.92-1.767,3.207-1.871l0.338-0.028l1.278,2.585l-0.896,0.443l-0.969-1.959
			c-0.851,0.163-1.646,0.676-2.13,1.391c-0.052,0.076-0.101,0.155-0.15,0.235c-0.196,0.314-0.418,0.67-0.792,0.912
			C26.343,159.212,26.031,159.29,25.721,159.29z"/>
	</g>
	<g clip-path="url(#SVGID_2_)">
		
			<rect x="34.417" y="156.436" transform="matrix(0.447 0.8945 -0.8945 0.447 159.9289 55.1709)" fill="#FFFFFF" width="1.849" height="1"/>
	</g>
	<g clip-path="url(#SVGID_2_)">
		<path fill="#FFFFFF" d="M-2.399,211.43c-0.156,0-0.308-0.015-0.455-0.044c-0.599-0.121-1.043-0.486-1.284-1.055l-0.125-0.296
			l0.216-0.236c4.954-5.424,7.678-12.745,7.474-20.088c-0.097-3.482-1.734-8.764-5.844-9.036c-1.116-0.078-2.354,0.233-3.555,0.53
			c-0.618,0.152-1.257,0.31-1.869,0.413l-0.166-0.986c0.575-0.097,1.168-0.243,1.795-0.398c1.276-0.314,2.595-0.637,3.861-0.557
			c4.273,0.283,6.645,5.249,6.778,10.007c0.208,7.474-2.517,14.927-7.484,20.511c0.103,0.108,0.234,0.178,0.402,0.211
			c0.703,0.151,1.922-0.376,2.722-1.152c7.398-7.197,12.218-17.217,13.223-27.49l0.084-0.86l0.704,0.502
			c7.387,5.274,18.91,4.245,26.934,3.014c12.851-2.803,17.532-10.393,19.531-13.633c0.252-0.41,0.468-0.76,0.657-1.035l0.825,0.564
			c-0.182,0.266-0.389,0.602-0.631,0.995c-2.065,3.35-6.902,11.192-20.2,14.091c-7.982,1.229-19.313,2.241-26.999-2.708
			c-1.201,10.212-6.066,20.113-13.432,27.277C-0.032,210.743-1.307,211.43-2.399,211.43z"/>
	</g>
	<g clip-path="url(#SVGID_2_)">
		<path fill="#FFFFFF" d="M22,137.669c-0.29-0.913-0.371-1.862-0.449-2.78c-0.083-0.969-0.161-1.885-0.466-2.739
			c-0.335-0.94-1.243-1.796-2.159-2.033c-0.547-0.142-1.013-0.048-1.384,0.277c-0.672,0.592-0.658,1.57-0.64,2.704
			c0.015,1.014,0.031,2.062-0.467,2.974l-0.877-0.48c0.372-0.68,0.358-1.553,0.344-2.479c-0.02-1.265-0.039-2.573,0.98-3.47
			c0.617-0.542,1.431-0.72,2.295-0.494c1.233,0.319,2.405,1.415,2.85,2.665c0.348,0.977,0.436,2,0.52,2.99
			c0.077,0.903,0.15,1.756,0.405,2.564L22,137.669z"/>
	</g>
	<g clip-path="url(#SVGID_2_)">
		<path fill="#FFFFFF" d="M33.864,141.088l-4.917-7.279c-0.139-0.205-0.428-0.632-0.285-1.121c0.105-0.356,0.396-0.564,0.536-0.664
			c1.63-1.174,3.804-1.618,5.96-1.22s4.026,1.589,5.131,3.267c0.226,0.341,0.506,0.859,0.337,1.423
			c-0.264,0.872-1.333,1.014-1.684,1.061l-4.338,0.57l-0.13-0.992l4.338-0.57c0.644-0.085,0.821-0.241,0.856-0.356
			c0.035-0.118-0.037-0.315-0.214-0.583c-0.957-1.453-2.588-2.485-4.478-2.835c-1.888-0.346-3.784,0.033-5.195,1.049
			c-0.123,0.087-0.154,0.125-0.162,0.141c0.005,0.007,0.025,0.078,0.156,0.271l2.301,3.407l0.471-0.136L33.864,141.088z"/>
	</g>
	<g clip-path="url(#SVGID_2_)">
		<path fill="#FFFFFF" d="M48.565,144.213c-0.111,0-0.222-0.011-0.332-0.032c-0.498-0.098-0.863-0.408-1.002-0.854l-0.016,0.387
			l-0.999-0.041l0.314-7.851c0.019-0.472,0.05-1.261,0.615-1.76c0.313-0.275,0.734-0.397,1.18-0.342
			c0.544,0.066,1.076,0.39,1.388,0.842c0.497,0.717,0.534,1.628,0.561,2.294l0.178,4.266c0.028,0.685,0.071,1.719-0.54,2.476
			C49.598,143.985,49.084,144.213,48.565,144.213z M48.116,134.708c-0.1,0-0.216,0.022-0.309,0.104
			c-0.225,0.199-0.261,0.627-0.277,1.049l-0.298,7.454l0.953-0.29c0.01,0.033,0.041,0.135,0.241,0.174
			c0.251,0.051,0.564-0.053,0.709-0.231c0.345-0.427,0.347-1.097,0.318-1.805l-0.178-4.266c-0.03-0.729-0.077-1.322-0.385-1.766
			c-0.15-0.219-0.426-0.387-0.687-0.419C48.176,134.71,48.147,134.708,48.116,134.708z"/>
	</g>
	<g clip-path="url(#SVGID_2_)">
		<path fill="#FFFFFF" d="M29.08,214.96c-0.595,0-1.193-0.104-1.785-0.335c-0.554-0.215-0.978-0.514-1.257-0.887
			c-0.576-0.771-0.506-1.746-0.444-2.606c0.059-0.818,0.109-1.525-0.319-1.951c-0.151-0.151-0.37-0.264-0.601-0.384
			c-0.177-0.092-0.353-0.184-0.517-0.294c-0.784-0.528-1.223-1.438-1.204-2.494c0.024-1.323,0.726-2.606,1.788-3.269
			c1.954-1.218,4.403-0.742,6.115-0.128l-0.337,0.941c-1.504-0.538-3.636-0.971-5.249,0.036c-0.77,0.479-1.299,1.459-1.316,2.437
			c-0.008,0.418,0.082,1.188,0.762,1.646c0.132,0.089,0.275,0.162,0.418,0.236c0.275,0.143,0.587,0.304,0.847,0.563
			c0.753,0.748,0.678,1.802,0.611,2.731c-0.054,0.752-0.105,1.464,0.247,1.936c0.166,0.221,0.441,0.407,0.819,0.554
			c2.681,1.04,5.638-1.132,7.251-3.599c0.361-0.553,0.702-1.151,0.753-1.782c0.093-1.154-0.797-2.117-1.587-2.591
			c-1.009-0.603-2.225-0.81-3.402-1.01l0.168-0.986c1.208,0.206,2.578,0.438,3.747,1.139c1.365,0.817,2.178,2.202,2.071,3.528
			c-0.069,0.856-0.5,1.617-0.913,2.249C34.256,212.919,31.705,214.96,29.08,214.96z"/>
	</g>
	<g clip-path="url(#SVGID_2_)">
		<path fill="#FFFFFF" d="M10.887,220.779c-0.599,0-1.183-0.126-1.702-0.38c-1.076-0.527-1.908-1.557-2.283-2.825
			c-0.4-1.355-0.235-2.84,0.443-3.971l0.857,0.516c-0.537,0.894-0.665,2.08-0.341,3.172c0.295,1,0.938,1.806,1.763,2.21
			c0.89,0.437,2.051,0.359,3.032-0.2c0.903-0.514,1.485-1.349,1.556-2.233c0.075-0.935-0.501-1.907-1.468-2.477
			c-0.902-0.533-1.871-0.566-2.589-0.088l-0.553-0.834c1.029-0.683,2.429-0.66,3.649,0.061c1.294,0.762,2.062,2.104,1.958,3.418
			c-0.098,1.215-0.867,2.345-2.058,3.022C12.442,220.574,11.652,220.779,10.887,220.779z"/>
	</g>
	<g clip-path="url(#SVGID_2_)">
		<path fill="#FFFFFF" d="M11.057,26.853l-1.342-1.056C2.062,19.775-3.974,11.417-7.28,2.261l0.94-0.34
			C-3.294,10.354,2.11,18.096,8.972,23.9L1.842,3.387l0.52-0.139c4.205-1.122,8.718-0.573,12.7-0.087
			c2.064,0.252,4.634,0.565,6.586,1.998c1.514,1.111,1.558,2.358,1.62,4.085c0.01,0.284,0.021,0.585,0.038,0.907
			c4.284-5.071,8.203-7.186,13.03-8.875c5.173-1.81,11.268-4.588,12.494-10.051c0.241-1.072,0.217-2.011-0.073-2.791
			c-0.37-0.998-1.192-1.778-1.866-2.346c-4.625-3.89-10.939-5.005-16.51-5.988c-7.052-1.245-14.345-2.532-21.608-2.567
			C3.036-22.482-1.294-21.67-4.88-19.873c-4.461,2.238-7.602,6.228-8.194,10.413c-0.662,4.672,2.27,9.513,6.402,10.571L-6.92,2.08
			c-4.682-1.199-7.887-6.439-7.145-11.681c0.638-4.504,3.986-8.783,8.736-11.166c3.732-1.871,8.178-2.755,14.106-2.701
			c7.349,0.035,14.684,1.33,21.777,2.583c5.413,0.955,12.149,2.145,16.98,6.208c0.769,0.647,1.708,1.546,2.16,2.763
			c0.358,0.964,0.395,2.093,0.111,3.357c-1.333,5.943-7.723,8.881-13.14,10.776c-4.954,1.733-8.918,3.93-13.367,9.517l-0.753,0.946
			l-0.135-1.202c-0.095-0.849-0.12-1.567-0.143-2.201c-0.059-1.658-0.088-2.49-1.212-3.313c-1.742-1.278-4.065-1.562-6.116-1.812
			C11.218,3.7,7.02,3.189,3.143,4.084L11.057,26.853z"/>
	</g>
	<g clip-path="url(#SVGID_2_)">
		<path fill="#FFFFFF" d="M131.56,321.72l-5.146-16.015c-0.264-0.819-0.562-1.747-1.201-2.325c-0.575-0.519-1.407-0.761-2.617-0.761
			c-0.5,0-1.005,0.038-1.491,0.077c-1.04,0.084-2.291,0.127-3.718,0.127c-10.232,0-27.247-2.184-27.417-2.205
			c-8.042-2.259-13.968-10.437-14.163-19.46c-0.171-8.001,3.901-16.283,10.894-22.157c5.787-4.859,13.518-8.227,22.979-10.009
			c6.975-1.313,14.176-1.678,21.141-2.029c1.298-0.065,2.595-0.131,3.892-0.202c1.158-0.063,2.318-0.132,3.479-0.201
			c4.387-0.258,8.922-0.525,13.379-0.525c4.677,0,8.765,0.299,12.496,0.915c11.106,1.833,20.057,6.874,25.202,14.195
			c6.103,8.681,5.809,20.842-0.668,27.687c-5.52,5.832-14.091,7.307-21.747,7.979c-7.835,0.687-15.821,0.859-23.679,0.513
			c-0.384-0.018-0.778-0.033-1.172-0.033c-1.103,0-2.489,0.108-3.432,0.946c-0.874,0.779-1.229,2.092-1.514,3.146L131.56,321.72z
			 M122.596,301.619c0.927,0,2.275,0.105,3.287,1.019c0.839,0.758,1.196,1.869,1.482,2.761l4.112,12.796l4.615-17.073
			c0.319-1.183,0.717-2.654,1.814-3.631c1.194-1.063,2.815-1.2,4.096-1.2c0.409,0,0.818,0.016,1.217,0.034
			c7.813,0.343,15.756,0.173,23.546-0.51c7.47-0.657,15.819-2.082,21.108-7.671c6.879-7.269,5.694-19.144,0.576-26.425
			c-4.99-7.099-13.707-11.994-24.546-13.783c-3.678-0.606-7.713-0.901-12.334-0.901c-4.428,0-8.948,0.267-13.319,0.524
			c-1.162,0.068-2.323,0.137-3.483,0.2c-1.298,0.071-2.597,0.138-3.896,0.203c-6.931,0.35-14.098,0.712-21.005,2.013
			c-9.291,1.75-16.868,5.045-22.521,9.792c-6.764,5.681-10.703,13.67-10.538,21.37c0.185,8.595,5.804,16.377,13.362,18.504
			c0.099,0.008,17.051,2.183,27.218,2.183c1.401,0,2.625-0.041,3.638-0.123C121.536,301.658,122.069,301.619,122.596,301.619z"/>
	</g>
	<g clip-path="url(#SVGID_2_)">
		<path fill="#FFFFFF" d="M33.185,280.479l-1.247-8.942c-0.056-0.399-0.161-1.142,0.326-1.665c0.466-0.499,1.12-0.464,1.647-0.433
			c0.132,0.007,0.261,0.013,0.389,0.013c1.442-0.025,2.405-1.785,2.47-3.402c0.028-0.694-0.039-1.39-0.109-2.124
			c-0.104-1.085-0.213-2.207,0.013-3.325c0.07-0.349,0.212-0.849,0.643-1.145c0.548-0.378,1.224-0.201,1.587-0.104l6.271,1.646
			c0.605,0.159,1.285,0.303,1.699,0.004c0.335-0.243,0.466-0.753,0.582-1.298c0.842-3.963,1.658-7.979,2.425-11.937l0.122-0.631
			l12.588,5.905c0.495,0.232,0.933,0.42,1.312,0.32c0.41-0.104,0.725-0.538,1.037-1.011l3.788-5.738l0.421,0.296
			c1.737,1.221,3.363,2.62,4.835,4.165l5.78-3.549l0.278,0.311c1.081,1.208,1.604,2.888,1.398,4.494l-0.992-0.127
			c0.152-1.186-0.178-2.42-0.89-3.379l-5.748,3.529l-0.279-0.3c-1.381-1.486-2.907-2.839-4.541-4.026l-3.218,4.875
			c-0.321,0.486-0.806,1.221-1.624,1.429c-0.757,0.196-1.496-0.153-1.985-0.384l-11.426-5.359
			c-0.732,3.759-1.507,7.565-2.306,11.323c-0.119,0.562-0.299,1.411-0.974,1.9c-0.832,0.604-1.943,0.312-2.54,0.153l-6.271-1.646
			c-0.309-0.081-0.615-0.143-0.766-0.039c-0.099,0.068-0.174,0.237-0.23,0.518c-0.196,0.974-0.1,1.974,0.002,3.033
			c0.071,0.735,0.145,1.497,0.113,2.261c-0.085,2.115-1.399,4.325-3.452,4.361c-0.146,0-0.304-0.006-0.461-0.015
			c-0.432-0.022-0.725-0.029-0.86,0.116c-0.142,0.153-0.114,0.513-0.067,0.845l1.247,8.942L33.185,280.479z"/>
	</g>
	<g clip-path="url(#SVGID_2_)">
		<path fill="#FFFFFF" d="M98.517,246.107c-0.768,0-1.536-0.095-2.277-0.288c-2.062-0.538-3.631-1.786-4.418-3.515
			c-0.39-0.858-0.489-1.642-0.293-2.327c0.402-1.415,1.989-2.107,3.278-2.026c1.298,0.073,2.445,0.711,3.457,1.272l-0.486,0.874
			c-0.917-0.51-1.958-1.088-3.027-1.148c-0.914-0.043-2.009,0.42-2.26,1.303c-0.129,0.451-0.048,1.003,0.241,1.639
			c0.66,1.449,1.995,2.501,3.76,2.961c2.276,0.594,4.926,0.108,6.756-1.236c0.838-0.615,1.561-1.621,1.167-2.374
			c-0.181-0.348-0.567-0.585-1.052-0.858l-4.042-2.275l0.49-0.871l4.042,2.275c0.471,0.266,1.115,0.629,1.448,1.267
			c0.669,1.283-0.252,2.754-1.462,3.644C102.344,245.52,100.432,246.107,98.517,246.107z"/>
	</g>
	<g clip-path="url(#SVGID_2_)">
		<path fill="#FFFFFF" d="M86.513,252.744c-0.405,0-0.805-0.073-1.186-0.222c-1.221-0.479-2.047-1.705-2.155-3.202
			c-0.097-1.345,0.43-2.553,1.389-3.216l-0.354-0.548c1.095-0.709,2.546-0.782,3.881-0.194c1.286,0.564,2.18,1.638,2.391,2.869
			c0.219,1.279-0.353,2.649-1.49,3.576C88.234,252.423,87.363,252.744,86.513,252.744z M84.958,246.276l0.317,0.559
			c-0.907,0.516-1.166,1.585-1.106,2.414c0.079,1.092,0.676,2.011,1.522,2.342c0.838,0.328,1.833,0.118,2.666-0.558
			c0.859-0.7,1.294-1.709,1.137-2.634c-0.154-0.899-0.83-1.692-1.808-2.122C86.76,245.87,85.739,245.875,84.958,246.276z"/>
	</g>
	<g clip-path="url(#SVGID_2_)">
		<path fill="#FFFFFF" d="M11.057,276.853l-1.342-1.057c-7.653-6.021-13.688-14.379-16.994-23.535l0.94-0.34
			c3.045,8.433,8.449,16.176,15.311,21.979l-7.129-20.513l0.52-0.139c4.205-1.122,8.718-0.572,12.7-0.087
			c2.065,0.252,4.636,0.566,6.586,1.998c1.097,0.805,1.938,2.082,2.219,3.423c2.643-3.606,7.398-5.532,12.469-7.306
			c5.173-1.811,11.268-4.59,12.494-10.052c0.241-1.072,0.216-2.012-0.073-2.791c-0.371-1-1.192-1.778-1.866-2.345
			c-4.627-3.893-11.216-5.055-16.51-5.989c-7.052-1.245-14.345-2.532-21.608-2.567c-5.695,0.001-10.067,0.798-13.653,2.596
			c-4.461,2.237-7.602,6.228-8.194,10.412c-0.662,4.673,2.27,9.514,6.402,10.571l-0.248,0.969
			c-4.682-1.198-7.887-6.438-7.145-11.681c0.638-4.504,3.986-8.783,8.736-11.166c3.731-1.87,8.222-2.71,14.106-2.701
			c7.349,0.035,14.684,1.33,21.777,2.583c5.412,0.955,12.147,2.143,16.98,6.208c0.768,0.646,1.708,1.543,2.16,2.763
			c0.358,0.964,0.395,2.093,0.111,3.357c-1.333,5.942-7.723,8.881-13.14,10.776c-5.508,1.927-10.624,4.025-12.809,8.277
			c-0.103,0.421-0.278,0.828-0.536,1.209l-2.259,3.325l1.376-3.777c0.138-0.378,0.293-0.741,0.466-1.09
			c0.306-1.5-0.576-3.266-1.848-4.198c-1.74-1.277-4.065-1.562-6.116-1.812c-3.725-0.453-7.922-0.963-11.798-0.068L11.057,276.853z"
			/>
	</g>
	<g clip-path="url(#SVGID_2_)">
		<path fill="#FFFFFF" d="M5.285,244.606l-0.997-0.074c0.216-2.888,0.134-5.808-0.244-8.68l0.991-0.131
			C5.423,238.662,5.507,241.651,5.285,244.606z"/>
	</g>
	<g clip-path="url(#SVGID_2_)">
		<path fill="#FFFFFF" d="M11.843,245.49l-6.18-0.001v-1l6.18,0.001c0.562,0,1.136-0.026,1.428-0.344
			c0.259-0.283,0.278-0.776,0.275-1.301l-0.028-5.811c-0.001-0.183-0.003-0.565-0.14-0.68c-0.097-0.081-0.335-0.095-0.509-0.105
			l-8.062-0.444l0.055-0.998l8.064,0.444c0.298,0.018,0.746,0.044,1.095,0.337c0.493,0.411,0.496,1.082,0.498,1.441l0.028,5.811
			c0.004,0.701-0.034,1.433-0.539,1.981C13.441,245.438,12.594,245.49,11.843,245.49z"/>
	</g>
	<g clip-path="url(#SVGID_2_)">
		<rect x="18.188" y="239.062" fill="#FFFFFF" width="3.758" height="1"/>
	</g>
	<g clip-path="url(#SVGID_2_)">
		
			<rect x="19.746" y="234.4" transform="matrix(0.3221 0.9467 -0.9467 0.3221 236.885 140.6323)" fill="#FFFFFF" width="1.001" height="2.641"/>
	</g>
	<g clip-path="url(#SVGID_2_)">
		
			<rect x="18.431" y="243.501" transform="matrix(0.9022 0.4314 -0.4314 0.9022 107.1974 15.3157)" fill="#FFFFFF" width="2.8" height="1"/>
	</g>
	<g clip-path="url(#SVGID_2_)">
		<path fill="#FFFFFF" d="M80.042,149.405l-0.717-0.697c1.019-1.047,1.236-2.791,0.506-4.056c-0.096-0.167-0.208-0.332-0.318-0.496
			c-0.38-0.564-0.81-1.203-0.738-1.991c0.027-0.296,0.125-0.561,0.21-0.795c0.08-0.218,0.155-0.424,0.155-0.603
			c-0.002-0.466-0.461-0.814-1.162-1.294c-0.753-0.516-1.608-1.1-1.586-2.141c0.007-0.323,0.109-0.607,0.2-0.857
			c0.051-0.143,0.105-0.284,0.131-0.433c0.048-0.288-0.075-0.607-0.331-0.854c-0.256-0.246-0.583-0.357-0.868-0.298l-0.205-0.979
			c0.607-0.133,1.271,0.078,1.766,0.556c0.495,0.477,0.728,1.127,0.624,1.742c-0.036,0.207-0.104,0.406-0.176,0.604
			c-0.071,0.196-0.137,0.381-0.141,0.54c-0.01,0.466,0.428,0.799,1.151,1.294c0.747,0.511,1.593,1.09,1.597,2.115
			c0.001,0.358-0.114,0.673-0.216,0.951c-0.071,0.193-0.138,0.376-0.153,0.541c-0.04,0.434,0.257,0.875,0.571,1.342
			c0.125,0.185,0.248,0.368,0.355,0.555C81.643,145.791,81.361,148.049,80.042,149.405z"/>
	</g>
	<g clip-path="url(#SVGID_2_)">
		<path fill="#FFFFFF" d="M110.396,142.055c-4.654-3.683-9.025-7.787-12.992-12.199l0.744-0.668
			c3.929,4.37,8.259,8.435,12.869,12.082L110.396,142.055z"/>
	</g>
	<g clip-path="url(#SVGID_2_)">
		<path fill="#FFFFFF" d="M118.105,133.493c-1.507,0-3.091-0.27-4.668-0.813c-3.043-1.05-5.7-2.883-8.269-4.655l0.567-0.822
			c2.514,1.733,5.113,3.526,8.027,4.532c3.171,1.093,6.352,1.003,8.727-0.242l0.465,0.885
			C121.54,133.12,119.876,133.493,118.105,133.493z"/>
	</g>
	<g clip-path="url(#SVGID_2_)">
		<path fill="#FFFFFF" d="M108.423,86.775l-0.999-0.046c0.033-0.718,0.474-1.729,2.386-2.467c5.222-2.026,11.173-1.927,16.33,0.271
			l-0.393,0.92c-4.917-2.098-10.595-2.192-15.576-0.258C109.393,85.496,108.458,86.014,108.423,86.775z"/>
	</g>
	<g clip-path="url(#SVGID_2_)">
		<path fill="#FFFFFF" d="M57.164,234.504c-3.611-1.81-6.175-4.706-7.034-7.947c-1.003-3.797,0.692-8.014,3.859-9.601
			c2.124-1.064,4.658-0.955,6.696-0.867c2.222,0.099,4.713,0.352,6.158,2.12c0.828,1.015,1.119,2.33,1.352,3.388l0.057,0.258
			c0.516,2.342,1.05,4.764,2.222,6.834c1.328,2.347,3.392,3.886,5.522,4.117c1.235,0.135,2.571-0.278,3.569-1.103
			c0.82-0.678,1.313-1.563,1.389-2.494l0.997,0.082c-0.098,1.201-0.72,2.332-1.75,3.183c-1.202,0.993-2.813,1.488-4.314,1.326
			c-2.449-0.266-4.798-1.992-6.284-4.619c-1.247-2.2-1.796-4.697-2.329-7.111l-0.057-0.258c-0.21-0.953-0.473-2.141-1.15-2.97
			c-1.184-1.449-3.33-1.661-5.427-1.753c-2.02-0.088-4.312-0.188-6.204,0.762c-2.761,1.382-4.228,5.094-3.341,8.45
			c0.785,2.964,3.16,5.628,6.515,7.309L57.164,234.504z"/>
	</g>
	<g clip-path="url(#SVGID_2_)">
		<path fill="#FFFFFF" d="M90.316,234.799c-0.45,0.001-0.889-0.094-1.294-0.284c-1.054-0.495-1.746-1.624-1.803-2.945
			c-0.056-1.283,0.515-2.432,1.489-2.998l0.503,0.865c-0.652,0.379-1.032,1.179-0.993,2.089c0.042,0.949,0.513,1.748,1.229,2.085
			c0.704,0.328,1.581,0.224,2.349-0.288c0.79-0.525,1.259-1.353,1.225-2.158c-0.034-0.788-0.52-1.551-1.299-2.041
			c-0.815-0.513-1.756-0.623-2.521-0.294l-0.394-0.92c1.066-0.454,2.354-0.32,3.446,0.367c1.058,0.665,1.718,1.729,1.766,2.845
			c0.049,1.153-0.59,2.315-1.67,3.034C91.709,234.581,91.001,234.799,90.316,234.799z"/>
	</g>
	<g clip-path="url(#SVGID_2_)">
		<path fill="#FFFFFF" d="M180.698,243.428c-0.479,0-0.859-0.152-1.132-0.319c-1.095-0.671-1.543-2.179-1.595-3.266l0.998-0.047
			c0.042,0.88,0.41,2.025,1.119,2.46c0.376,0.229,0.808,0.23,1.321,0c0.488-0.221,0.89-0.628,1.327-1.099
			c1.453-1.559,2.881-3.134,4.283-4.724c-0.082-0.105-0.163-0.214-0.244-0.323c-1.1-1.49-2.078-3.092-2.907-4.76
			c-0.354-0.712-1.427-2.876,0.161-4.725c1.178-1.371,3.242-1.926,6.135-1.646c0.539,0.053,1.077,0.108,1.616,0.164
			c1.406,0.145,2.831,0.292,4.277,0.376c2.591-3.34,5.064-6.726,7.41-10.146c1.096-1.599,2.222-3.241,3.995-4.365
			c1.286-0.814,2.942-1.163,4.128-0.864c0.655,0.165,1.152,0.518,1.437,1.02c0.36,0.641,0.325,1.39,0.294,2.052
			c-0.208,4.221-1.874,7.315-5.241,9.738c-0.45,0.324-0.883,0.681-1.312,1.035c-1.213,0.999-2.467,2.033-4.048,2.282
			c-2.121,0.334-4.181,0.371-6.194,0.274c-2.617,3.356-5.353,6.664-8.193,9.909c1.877,2.144,3.924,3.014,6.226,2.665
			c2.101-0.319,4.264-1.773,5.261-3.537c0.945-1.671,0.759-3.521-0.454-4.499c-1.304-1.054-4.229-0.87-5.657,0.831l-0.766-0.643
			c1.794-2.138,5.377-2.318,7.051-0.967c1.602,1.291,1.888,3.664,0.697,5.77c-1.139,2.013-3.599,3.671-5.981,4.033
			c-2.596,0.399-4.959-0.579-7.04-2.897c-1.376,1.558-2.776,3.101-4.2,4.627c-0.394,0.425-0.936,1.008-1.647,1.33
			C181.402,243.356,181.027,243.428,180.698,243.428z M188.769,225.909c-1.862,0-3.197,0.458-3.98,1.369
			c-0.788,0.918-0.796,2.07-0.023,3.627c0.804,1.616,1.751,3.167,2.816,4.611c0.037,0.051,0.075,0.101,0.112,0.15
			c2.636-3.015,5.18-6.083,7.62-9.193c-1.228-0.088-2.438-0.212-3.635-0.336c-0.537-0.056-1.073-0.11-1.609-0.162
			C189.61,225.931,189.177,225.909,188.769,225.909z M197.279,225.574c1.732,0.056,3.492-0.008,5.285-0.291
			c1.312-0.206,2.408-1.109,3.568-2.065c0.446-0.368,0.896-0.739,1.364-1.076c3.144-2.261,4.632-5.029,4.827-8.974
			c0.025-0.552,0.052-1.123-0.167-1.513c-0.147-0.261-0.42-0.443-0.81-0.541c-0.92-0.23-2.298,0.073-3.349,0.738
			c-1.6,1.016-2.667,2.571-3.698,4.076C202.072,219.179,199.729,222.398,197.279,225.574z"/>
	</g>
	<g clip-path="url(#SVGID_2_)">
		<path fill="#FFFFFF" d="M123.228,235.217c-8.401,0-16.356-0.559-22.033-5.69c-2.274-2.057-3.905-4.661-5.482-7.18
			c-2.55-4.076-4.965-8.433-4.083-12.929l0.981,0.193c-0.812,4.141,1.405,8.136,3.95,12.204c1.541,2.461,3.134,5.005,5.306,6.969
			c5.616,5.077,13.744,5.463,22.272,5.431c4.185-0.018,8.928-0.037,12.874-2.087c5.347-2.779,8.237-8.628,10.966-14.889l0.916,0.4
			c-2.802,6.431-5.784,12.446-11.421,15.375c-4.16,2.162-9.032,2.183-13.331,2.2C123.837,235.216,123.532,235.217,123.228,235.217z"
			/>
	</g>
	<g clip-path="url(#SVGID_2_)">
		<path fill="#FFFFFF" d="M120.971,228.615c-1.666,0-3.333-0.149-4.977-0.455c-7.133-1.32-10.825-4.786-14.792-10.327l0.813-0.582
			c3.91,5.461,7.325,8.66,14.161,9.927c6.728,1.244,13.864-0.198,19.578-3.965c2.456-1.62,3.891-3.301,4.388-5.139l0.965,0.26
			c-0.562,2.085-2.134,3.954-4.802,5.713C131.773,227.035,126.379,228.615,120.971,228.615z"/>
	</g>
	<g clip-path="url(#SVGID_2_)">
		<path fill="#FFFFFF" d="M120.329,220.413c-4.883,0-9.74-1.626-13.982-4.856l0.605-0.795c7.689,5.855,17.486,6.199,25.57,0.901
			l0.549,0.836C129.083,219.113,124.695,220.413,120.329,220.413z"/>
	</g>
	<g clip-path="url(#SVGID_2_)">
		<path fill="#FFFFFF" d="M175.45,235.391c-4.557-1.528-8.86-3.707-12.79-6.476c-2.253-1.587-5.317-4.106-5.917-7.643l0.986-0.168
			c0.537,3.169,3.399,5.509,5.507,6.992c3.851,2.714,8.066,4.849,12.532,6.347L175.45,235.391z"/>
	</g>
	<g clip-path="url(#SVGID_2_)">
		<path fill="#FFFFFF" d="M212.51,236.071c-1.326,0-2.653-0.057-3.978-0.172l0.086-0.996c11.758,1.021,23.769-2.637,32.962-10.032
			l0.627,0.779C233.851,232.372,223.213,236.071,212.51,236.071z"/>
	</g>
	<g clip-path="url(#SVGID_2_)">
		<path fill="#FFFFFF" d="M237.48,201.284l-1.643-9.231c-0.182-1.026-0.455-1.546-0.886-1.683c-0.267-0.087-0.601-0.013-1.01,0.095
			l-3.978,1.03l-0.252-0.969l3.979-1.03c0.42-0.109,0.995-0.26,1.563-0.079c1.062,0.339,1.396,1.493,1.566,2.461l1.643,9.23
			L237.48,201.284z"/>
	</g>
	<g clip-path="url(#SVGID_2_)">
		
			<rect x="235.627" y="192.25" transform="matrix(0.2986 0.9544 -0.9544 0.2986 351.9965 -88.3806)" fill="#FFFFFF" width="1.001" height="6.077"/>
	</g>
	<g clip-path="url(#SVGID_2_)">
		<path fill="#FFFFFF" d="M117.842,121.363c-1.74-0.608-3.237-1.973-4.005-3.651l-0.241-0.525l6.778-1.986l0.281,0.96l-5.639,1.652
			c0.705,1.196,1.85,2.15,3.156,2.606L117.842,121.363z"/>
	</g>
	<g clip-path="url(#SVGID_2_)">
		
			<rect x="119.728" y="100.104" transform="matrix(0.9989 0.0478 -0.0478 0.9989 5.1569 -5.632)" fill="#FFFFFF" width="1" height="9.612"/>
	</g>
	<g clip-path="url(#SVGID_2_)">
		<path fill="#FFFFFF" d="M119.522,96.119l-3.516-2.278c-0.249-0.161-0.666-0.431-0.792-0.916c-0.099-0.383-0.078-1.117,1.171-1.736
			l3.899-1.925l0.443,0.896l-3.899,1.925c-0.464,0.23-0.677,0.471-0.646,0.589c0.028,0.107,0.25,0.25,0.368,0.328l3.516,2.277
			L119.522,96.119z"/>
	</g>
	<g clip-path="url(#SVGID_2_)">
		<path fill="#FFFFFF" d="M138.972,69.281c-0.535-5.658-0.134-11.328,1.192-16.854l0.973,0.233
			c-1.301,5.418-1.693,10.978-1.169,16.526L138.972,69.281z"/>
	</g>
	<g clip-path="url(#SVGID_2_)">
		<rect x="144.196" y="52.514" fill="#FFFFFF" width="1" height="6.68"/>
	</g>
	<g clip-path="url(#SVGID_2_)">
		
			<rect x="146.508" y="54.06" transform="matrix(0.4511 0.8925 -0.8925 0.4511 129.8782 -102.0556)" fill="#FFFFFF" width="2.801" height="1"/>
	</g>
	<g clip-path="url(#SVGID_2_)">
		
			<rect x="150.488" y="52.837" transform="matrix(0.9521 0.3059 -0.3059 0.9521 23.606 -43.9469)" fill="#FFFFFF" width="3.037" height="1"/>
	</g>
	<g clip-path="url(#SVGID_2_)">
		<path fill="#FFFFFF" d="M151.43,240.792c-1.152,0-2.345-0.462-3.208-1.328c-0.271-0.272-0.554-0.509-0.82-0.733
			c-0.879-0.739-1.788-1.504-1.585-3.01l0.99,0.133c-0.123,0.919,0.34,1.356,1.238,2.112c0.288,0.242,0.592,0.498,0.886,0.793
			c1.062,1.064,2.746,1.356,3.923,0.672c1.324-0.769,1.835-2.762,1.094-4.265c-0.693-1.406-2.36-2.389-4.148-2.443
			c-1.026-0.033-1.248,0.183-1.755,0.704c-0.269,0.276-0.603,0.621-1.128,1.002l-0.588-0.809c0.455-0.331,0.744-0.628,0.999-0.891
			c0.634-0.653,1.092-1.042,2.503-1.007c2.181,0.067,4.148,1.245,5.014,3.001c0.979,1.983,0.297,4.535-1.488,5.572
			C152.778,240.631,152.111,240.792,151.43,240.792z"/>
	</g>
	<g clip-path="url(#SVGID_2_)">
		
			<rect x="150.059" y="224.903" transform="matrix(0.9735 0.2287 -0.2287 0.9735 55.8223 -28.4276)" fill="#FFFFFF" width="0.999" height="3.441"/>
	</g>
	<g clip-path="url(#SVGID_2_)">
		<rect x="158.892" y="235.722" fill="#FFFFFF" width="2.088" height="1"/>
	</g>
	<g clip-path="url(#SVGID_2_)">
		
			<rect x="137.546" y="236.759" transform="matrix(0.4612 0.8873 -0.8873 0.4612 285.6891 5.8276)" fill="#FFFFFF" width="0.999" height="2.8"/>
	</g>
	<g clip-path="url(#SVGID_2_)">
		
			<rect x="154.427" y="230.705" transform="matrix(0.7091 0.7052 -0.7052 0.7091 207.966 -42.0384)" fill="#FFFFFF" width="1" height="0.594"/>
	</g>
	<g clip-path="url(#SVGID_2_)">
		
			<rect x="144.609" y="229.25" transform="matrix(0.7071 0.7071 -0.7071 0.7071 204.8993 -35.1706)" fill="#FFFFFF" width="0.591" height="1"/>
	</g>
	<g clip-path="url(#SVGID_2_)">
		
			<rect x="144.277" y="240.36" transform="matrix(0.9656 0.26 -0.26 0.9656 67.8603 -29.3213)" fill="#FFFFFF" width="0.999" height="3.04"/>
	</g>
	<g clip-path="url(#SVGID_2_)">
		<rect x="150.876" y="242.902" fill="#FFFFFF" width="1" height="1.253"/>
	</g>
	<g clip-path="url(#SVGID_2_)">
		<path fill="#FFFFFF" d="M158.944,243.659c-0.424-0.456-1.064-0.718-1.688-0.667l-0.07-0.998c0.925-0.064,1.856,0.303,2.49,0.983
			L158.944,243.659z"/>
	</g>
	<g clip-path="url(#SVGID_2_)">
		<path fill="#FFFFFF" d="M77.976,211.265c-0.962,0-1.887-0.264-2.657-0.773c-2.289-1.515-2.986-4.926-1.491-7.299
			c1.293-2.055,4.048-3.048,6.438-2.421l-0.004-0.016c0.537-0.137,1.055-0.033,1.499,0.3c0.878,0.662,1.307,2.14,1.343,3.311
			c0.046,1.534,0.032,3.02-0.639,4.329c-0.59,1.155-1.721,2.025-3.101,2.388C78.901,211.204,78.435,211.265,77.976,211.265z
			 M78.782,201.58c-1.628,0-3.255,0.792-4.107,2.146c-1.196,1.898-0.626,4.726,1.196,5.932c0.886,0.587,2.096,0.757,3.239,0.459
			c1.105-0.291,2.004-0.975,2.465-1.876c0.564-1.101,0.573-2.392,0.529-3.844c-0.028-0.931-0.361-2.103-0.944-2.542
			c-0.133-0.101-0.27-0.152-0.418-0.157l-0.108,0.254C80.046,201.699,79.414,201.58,78.782,201.58z"/>
	</g>
	<g clip-path="url(#SVGID_2_)">
		
			<rect x="77.253" y="212.964" transform="matrix(0.1487 0.9889 -0.9889 0.1487 278.8383 103.0155)" fill="#FFFFFF" width="4.665" height="1"/>
	</g>
	<g clip-path="url(#SVGID_2_)">
		<path fill="#FFFFFF" d="M81.441,220.521c-1.329,0-2.684-0.793-3.27-2.034c-0.352-0.749-0.369-1.514-0.047-2.099
			c0.221-0.398,0.645-0.7,1.107-0.786c0.412-0.077,0.8,0.018,1.097,0.265l-0.642,0.768c-0.085-0.072-0.207-0.062-0.272-0.05
			c-0.171,0.032-0.338,0.147-0.415,0.287c-0.163,0.296-0.135,0.74,0.076,1.188c0.531,1.127,1.937,1.742,3.066,1.345
			c0.546-0.191,1.025-0.657,1.283-1.246c0.246-0.56,0.264-1.164,0.052-1.656c-0.222-0.516-0.724-0.92-1.342-1.083
			c-0.588-0.155-1.165-0.064-1.582,0.251l-0.603-0.799c0.663-0.501,1.551-0.655,2.439-0.419c0.913,0.24,1.662,0.858,2.005,1.653
			c0.322,0.747,0.303,1.642-0.054,2.454c-0.373,0.851-1.053,1.502-1.868,1.788C82.141,220.466,81.792,220.521,81.441,220.521z"/>
	</g>
	<g clip-path="url(#SVGID_2_)">
		<path fill="#FFFFFF" d="M23.474,36.117c-0.388,0-0.799-0.241-1.23-0.722c-1.673-1.867-4.168-2.981-6.676-2.981
			c-0.001,0-0.002,0-0.003,0l-0.854,0l0.417-0.745c0.575-1.025,1.663-1.738,2.824-1.893c-0.604-3.35-2.202-6.531-4.536-9.011
			l0.729-0.686c2.598,2.761,4.333,6.346,4.886,10.095l0.088,0.596l-0.602-0.023c-0.704-0.012-1.424,0.246-1.956,0.718
			c2.441,0.255,4.789,1.434,6.427,3.262c0.339,0.378,0.486,0.384,0.487,0.384c0.031-0.031,0.094-0.217,0.114-0.279l3.047-9.201
			c0.047-0.143,0.112-0.339,0.084-0.445c-0.011-0.042-0.03-0.072-0.091-0.102c-0.208-0.102-0.649-0.059-1.003,0.095
			c-0.528,0.23-1.766,0.768-2.493-0.062c-0.319-0.364-0.364-0.845-0.395-1.163l-0.407-4.393c-0.013-0.138-0.04-0.425-0.13-0.501
			c-0.107-0.089-0.456-0.023-0.586,0.003l-5.323,1.023l-0.188-0.982l5.323-1.023c0.33-0.062,0.945-0.181,1.417,0.213
			c0.406,0.34,0.455,0.863,0.484,1.175l0.407,4.392c0.02,0.212,0.044,0.477,0.151,0.598c0.221,0.252,0.872,0.01,1.341-0.196
			c0.486-0.211,1.258-0.358,1.836-0.079c0.317,0.153,0.533,0.411,0.623,0.745c0.104,0.394-0.02,0.769-0.102,1.017l-3.048,9.202
			c-0.078,0.235-0.208,0.626-0.584,0.837C23.799,36.073,23.639,36.117,23.474,36.117z"/>
	</g>
</g>
</svg>
